<svg width="19" height="19" viewBox="0 0 19 19" fill="none" xmlns="http://www.w3.org/2000/svg">
<path d="M9.13309 6.69948C9.95017 7.96466 11.0354 9.04121 12.3147 9.85085L7.18973 14.9768C6.76478 15.4018 6.5523 15.6144 6.2913 15.7542C6.0302 15.8939 5.73522 15.9527 5.14579 16.0706L3.11063 16.4778C2.77802 16.5443 2.61149 16.5773 2.51688 16.4827C2.42259 16.3881 2.45535 16.222 2.52176 15.8899L2.92899 13.8538C3.04677 13.2649 3.10585 12.9702 3.2454 12.7092C3.38513 12.4481 3.59769 12.2349 4.02274 11.8098L9.13309 6.69948ZM12.1829 3.66237C12.9227 3.05001 13.9938 3.05008 14.7337 3.66237C14.7698 3.69227 14.8076 3.7271 14.8557 3.7737L15.0413 3.95827C15.1982 4.11514 15.2773 4.19355 15.3372 4.26589C15.9497 5.00575 15.9496 6.07676 15.3372 6.81667C15.2773 6.88907 15.1984 6.96821 15.0413 7.12526L13.7727 8.39284C12.442 7.6479 11.3422 6.55747 10.5872 5.2444L11.8753 3.95827C12.0323 3.8013 12.1105 3.72229 12.1829 3.66237Z" fill="#E3A126"/>
</svg>
