<svg width="402" height="460" viewBox="0 0 402 460" fill="none" xmlns="http://www.w3.org/2000/svg">
<g filter="url(#filter0_d_22_82911)">
<path d="M41.7571 282.216C53.3809 317.995 76.6599 348.811 107.871 369.735C139.083 390.66 176.424 400.484 213.924 397.636C251.423 394.789 286.915 379.435 314.723 354.029C342.531 328.624 361.05 294.634 367.318 257.496C373.585 220.358 367.239 182.217 349.295 149.172C331.351 116.126 302.846 90.0858 268.336 75.2143C233.827 60.3428 195.308 57.4994 158.938 67.1388C122.569 76.7782 90.4498 98.3436 67.7178 128.386C51.3214 150.056 40.3966 175.364 35.8759 202.152C31.3553 228.939 33.3731 256.409 41.7571 282.216Z" fill="#0D010C"/>
</g>
<mask id="mask0_22_82911" style="mask-type:alpha" maskUnits="userSpaceOnUse" x="33" y="61" width="337" height="338">
<path opacity="0.85" d="M41.7574 282.216C53.3812 317.995 76.6602 348.811 107.872 369.735C139.083 390.66 176.424 400.484 213.924 397.636C251.423 394.789 286.915 379.435 314.723 354.029C342.532 328.624 361.05 294.635 367.318 257.497C373.585 220.358 367.24 182.217 349.296 149.172C331.352 116.126 302.846 90.0859 268.337 75.2144C233.827 60.3429 195.308 57.4995 158.939 67.1389C122.569 76.7783 90.4501 98.3436 67.718 128.386C51.3217 150.056 40.3968 175.364 35.8762 202.152C31.3555 228.939 33.3734 256.409 41.7574 282.216Z" fill="#461535"/>
</mask>
<g mask="url(#mask0_22_82911)">
<path d="M57.7031 165.331C58.1281 164.984 62.7403 161.722 62.4815 162.675C62.2662 163.15 61.5022 164.058 61.5275 164.184C61.894 164.141 62.4405 163.765 63.1601 163.183C66.0541 160.248 66.2927 160.525 70.0455 161.598C71.3711 161.705 72.5036 160.883 73.8371 160.84C75.5758 160.534 77.2739 160.9 79.1323 161.077C80.5914 161.265 82.2988 161.127 83.6008 161.962C84.247 162.413 84.5037 163.318 85.2391 163.611C86.8145 164.071 89.0866 163.098 90.9001 163.249C92.181 163.159 93.3997 164.35 94.5774 164.266C94.8806 163.829 94.5781 163.095 94.5494 161.989C94.3143 159.878 96.1314 159.169 97.8355 159.546C100.339 159.976 103.198 160.972 105.513 159.545C106.5 159.026 107.385 158.018 108.53 157.989C109.336 158.045 110.043 158.753 110.742 159.121C112.242 159.238 112.206 156.093 112.683 154.9C113.006 151.611 108.827 152.634 109.145 147.334C109.254 144.62 108.474 141.678 109.033 139.021C109.422 136.398 115.249 134.157 112.706 138.734C111.013 141.362 110.003 142.827 112.132 145.688C113.792 148.382 115.115 151.36 117.353 153.498C118.822 154.909 119.606 150.855 120.838 154.301C121.424 156.044 122.958 157.765 123.95 155.483C124.868 153.832 124.086 151.265 125.183 149.741C125.977 148.819 127.555 149.179 128.399 149.905C129.257 150.672 129.452 151.82 129.647 152.993C130.2 156.698 129.127 158.54 125.951 159.544C123.321 161.183 123.685 162.15 120.102 162.547C117.818 163.048 121.184 163.566 121.863 163.757C124.51 164.365 123.318 166.244 121.744 167.301C120.666 168.07 119.169 168.411 118.527 168.739C117.729 169.085 118.088 169.649 118.126 170.326C118.06 171.814 116.966 172.72 116.314 174.388C115.776 175.767 115.273 177.653 115.409 178.952C115.59 180.951 117.315 182.049 118.68 183.117C120.347 184.495 121.971 185.19 123.949 185.386C126.79 185.929 129.546 187.248 132.32 187.911C134.646 188.646 134.734 191.671 136.655 193.079C140.593 196.15 140.27 192.795 139.61 189.339C139.282 187.369 140.335 185.725 140.798 183.934C141.526 180.874 139.196 177.943 138.726 175.074C138.628 173.096 136.995 170.249 138.486 168.797C141.338 166.913 148.117 168.524 149.515 172.058C150.319 174.506 152.547 176.174 154.624 174.5C155.35 173.903 155.76 172.617 156.348 172.04C159.538 170.097 161.523 179.586 163.904 180.866C165.068 181.702 167.357 182.207 166.844 184.169C166.857 184.446 166.567 184.87 166.846 185.044C167.866 185.207 169.144 184.762 170.078 185.46C171.051 186.169 171.144 187.657 170.545 188.702C168.47 192.138 164.444 193.782 160.814 194.606C157.307 195.6 154.973 198.697 153.306 202.108C152.232 204.527 154.459 201.525 155.465 200.495C156.568 199.153 160.112 196.176 160.073 199.67C159.715 202.154 162.558 204.61 164.652 204.2C165.309 204.201 166.708 202.606 166.801 203.435C166.731 205.023 165.357 206.538 164.151 207.48C162.777 208.627 159.917 210.845 161.873 207.384C163.084 204.66 158.813 207.709 158.198 208.325C155.034 210.498 155.394 212.429 154.143 215.721C153.305 217.153 151.868 218.214 151.052 219.719C150.273 220.962 149.87 221.28 149.58 222.042C149.072 223.283 150.009 226.331 148.289 223.612C147.883 223.57 148.157 225.012 148.176 225.759C148.431 227.988 149.371 230.382 147.987 232.319C146.325 234.938 143.323 237.35 143.679 240.912C143.819 242.847 144.96 244.785 145.514 246.663C146.021 248.228 145.722 249.663 144.307 248.35C143.508 247.517 143.044 246.281 142.451 245.272C140.811 241.751 136.499 242.339 133.884 243.222C132.639 243.898 131.938 245.244 130.314 244.941C126.449 244.39 121.888 247.646 122.635 252.341C122.787 255.453 122.501 259.208 125.018 261.505C126.776 263.545 129.742 264.434 131.789 262.822C133.132 261.698 133.567 259.602 134.991 258.567C136.56 257.301 138.13 258.612 137.706 260.549C137.667 262.389 136.155 264.877 137.794 266.184C139.886 267.102 143.164 265.806 144.36 268.7C144.995 270.239 144.727 272.392 145.684 273.894C146.853 276.076 149.31 275.989 151.307 275.892C152.367 275.871 153.671 275.955 154.587 275.538C155.655 274.992 156.084 273.56 156.862 272.625C158.602 270.37 161.375 269.542 164.012 269.505C167.729 269.828 171.909 269.334 175.477 270.995C177.482 272.084 179.272 273.934 181.314 274.964C183.094 275.919 185.075 276.074 186.941 276.708C191.305 278.345 194.155 282.734 198.066 285.117C201.701 286.384 205.821 286.233 209.46 287.832C211.761 288.865 214.886 289.075 215.819 292.023C216.864 295.976 213.584 298.75 212.396 302.03C211.463 304.957 212.991 308.856 212.447 311.773C212.228 312.806 211.438 313.584 210.734 314.44C209.619 315.656 208.726 317.229 207.719 318.53C204.079 322.272 203.032 323.132 202.073 328.798C201.411 331.787 199.464 334.252 198.03 336.899C197.196 338.344 196.667 339.737 195.548 340.822C194.633 341.65 193.552 342.354 193.06 343.469C192.217 346.509 189.007 347.066 187.306 349.277C186.64 350.246 186.531 351.635 186.595 352.762C186.627 353.64 186.601 354.235 186.006 354.563C185.367 354.871 184.456 355.232 184.189 356.104C183.643 358.198 183.151 360.503 183.134 362.782C183.15 364.383 183.424 366.034 183.019 367.545C182.633 369.137 181.419 370.476 180.975 372.118C179.667 376.279 183.073 380.736 186.89 381.292C191.315 382.268 184.515 383.568 183.424 383.402C175.749 382.808 170.659 375.31 170.913 367.07C169.979 352.692 171.895 338.302 171.38 323.944C171.276 314.525 166.298 315.452 161.31 310.325C158.831 307.383 157.01 303.932 154.556 300.915C150.506 296.27 151.949 291.636 154.102 286.558C155.294 283.914 155.531 280.463 153.618 278.124C151.77 276.115 149.212 278.352 146.947 277.266C143.677 276.363 142.064 272.915 139.115 271.326C135.926 269.933 132.145 268.939 128.875 267.464C125.578 266.644 122.08 266.684 118.813 265.68C114.207 264.791 113.563 262.338 110.944 258.755C108.706 256.341 105.821 254.216 103.574 251.743C101.933 250.027 100.418 247.655 98.567 246.278C96.3509 245.072 98.6867 248.662 99.09 249.329C99.4168 250.486 105.389 256.722 103.724 256.865C102.15 255.939 100.142 253.773 98.5338 252.442C97.7643 251.63 97.8193 250.982 97.041 249.677C95.8159 247.862 94.5517 245.916 93.0826 244.311C91.7218 242.836 89.8138 242.124 88.4814 240.926C86.5298 239.139 85.4913 236.455 83.94 234.285C80.8425 230.255 81.1205 224.903 80.8423 219.935C80.992 217.745 78.7685 214.602 79.7521 213.117C80.1059 212.583 80.7218 212.206 80.2323 211.528C79.2098 210.3 77.472 209.654 76.0661 208.965C71.8357 207.351 69.8634 202.581 66.0266 200.279C61.7799 198.309 59.1073 193.626 54.4623 192.575C52.5315 192.001 50.607 191.934 48.7172 191.721C47.3203 191.543 45.713 191.161 44.4248 191.434C42.43 191.767 41.3751 194.342 39.9681 195.475C38.035 197.034 38.3119 194.475 39.0901 193.139C39.6634 192.115 41.0336 189.836 38.9289 191.654C37.0381 193.321 35.8969 196.407 34.8838 198.856C33.6196 201.496 31.7209 203.72 29.6759 205.647C28.6023 206.965 18.7696 213.45 24.3289 208.358C25.7207 207.196 27.2435 206.127 28.403 204.659C29.1202 203.582 31.1908 201.173 29.6856 199.98C28.3996 199.498 26.9454 200.098 25.5946 199.749C21.4101 199.284 16.3375 195.197 21.2964 191.107C22.653 190.13 24.8467 186.775 21.9734 186.757C20.6589 186.884 18.7868 187.834 17.4582 187.17C16.1637 186.24 17.2096 184.635 18.4862 184.226C19.6478 183.599 22.1649 183.308 21.763 181.88C20.8738 180.601 17.9871 180.203 17.7186 178.203C17.3928 173.918 23.0565 169.495 26.2244 168.017C29.3945 166.51 32.6398 167.697 35.9957 167.782C39.0994 167.761 42.0487 167.229 45.082 166.953C46.5785 166.797 48.4541 166.639 50.1882 166.738C52.7934 167.065 55.5832 167.12 57.6645 165.349L57.696 165.328L57.7031 165.331ZM144.36 103.726C144.977 104.633 144.165 105.681 143.156 106.826C141.213 108.872 138.489 110.041 136.25 111.612C135.426 112.145 134.581 112.96 135.04 114.076C135.783 115.903 138.442 117.999 140.425 118.762C141.984 119.385 143.706 119.387 145.342 119.239C146.798 119.103 148.362 118.987 149.912 118.917C151.575 118.856 153.241 118.734 154.734 119.047C156.936 119.546 157.899 121.307 159.326 123.543C159.974 124.602 160.616 125.69 161.244 126.763C161.887 127.885 162.59 128.978 162.991 130.199C163.398 131.457 163.481 132.736 163.734 134.024C164.051 135.536 164.365 137.234 165.524 138.081C166.406 138.674 167.499 138.386 168.462 138.707C169.796 139.046 170.778 140.787 170.294 142.178C169.903 143.393 168.953 144.315 168.437 145.547C168.105 146.292 167.911 147.122 167.9 147.979C167.916 151.756 170.721 155.498 172.777 158.481C173.894 159.963 174.925 161.262 175.972 162.679C177.425 164.731 179.514 165.985 181.878 166.224C185.003 166.606 186.085 165.5 186.452 162.195C186.695 160.415 186.956 158.299 187.102 156.373C187.232 154.414 187.403 152.395 188.696 151.181C190.194 149.69 192.449 148.931 193.924 147.487C194.696 146.719 195.108 145.732 195.629 144.723C196.335 143.294 197.289 141.955 198.554 141.079C199.898 140.131 201.3 139.491 202.689 138.573C204.296 137.556 205.796 136.279 207.272 135.071C209.802 133.008 210.308 131.901 209.281 128.464C208.321 125.218 208.643 121.708 210.007 118.74C210.623 117.361 211.558 115.986 211.624 114.409C211.647 112.124 210.404 109.942 209.799 107.781C209.402 106.519 209.146 105.153 209.391 103.857C209.504 103.148 209.754 102.461 209.849 101.761C210.171 99.417 207.203 97.7618 207.891 94.658C208.366 92.6873 209.955 91.2069 211.034 89.6042C212.068 88.1235 213.018 86.6869 214.308 85.4416C215.056 84.6989 215.96 84.06 216.327 83.5551C217.386 82.0995 213.87 82.0727 213.178 82.1314C211.678 82.2209 210.457 82.8092 208.843 83.5047C207.309 84.1739 205.538 84.9196 204.044 85.5683C201.09 86.9687 201.465 85.1307 202.159 82.8361C202.452 81.7966 202.729 81.0072 202.187 80.5578C201.318 79.9534 199.995 79.9609 198.938 79.796C196.466 79.5443 194.082 79.3056 191.673 79.2007C188.452 79.1029 185.107 79.6463 182.05 80.6487C180.22 81.3698 179.142 82.8498 177.329 83.4241C176.004 83.8573 174.537 83.7904 173.169 84.0858C171.934 84.3227 170.643 84.7941 169.57 85.3144C169.044 85.5669 168.462 85.8807 168.075 86.2949C167.708 86.6699 167.853 87.088 168.217 87.3935C168.894 88.0221 170.525 88.848 170.964 89.3369C171.033 89.4082 171.112 89.5118 171.104 89.6043C171.098 89.6556 171.064 89.6993 171.001 89.7304C170.804 89.8346 170.292 89.8014 169.585 89.699C169.102 89.6324 168.532 89.5431 167.932 89.4727C163.251 88.8766 160.84 89.6636 156.648 91.5538C154.916 92.2552 153.04 92.9374 151.42 93.9586C149.934 94.8848 148.827 95.9654 147.619 97.0781C146.546 98.0814 145.434 99.0714 144.337 100.045C143.774 100.529 142.951 101.319 142.821 101.925C142.692 102.88 143.92 103.072 144.355 103.705L144.369 103.725L144.36 103.726ZM92.6373 145.576C92.6333 146.392 92.7151 147.374 91.675 147.277C90.9136 147.245 89.6843 146.955 88.7773 146.878C87.0325 146.605 84.7755 147.316 83.1284 146.726C82.6872 146.559 82.2868 146.288 81.8074 146.243C80.0853 146.166 78.0268 148.917 77.6749 150.451C77.2636 152.008 78.859 153.08 78.869 154.554C78.8643 155.031 78.937 155.532 79.4407 155.638C80.1023 155.858 81.5321 155.633 82.8696 155.457C83.8032 155.335 84.7686 155.252 85.7064 155.231C90.9276 155.204 86.3709 156.472 84.6671 156.88C83.3507 157.226 79.1827 158.105 80.9847 159.66C81.4723 160.007 82.2544 160.192 82.8779 160.345C83.7579 160.561 84.5806 160.8 85.4308 161.063C88.0954 162.036 90.0585 161.331 92.4052 159.856C94.0595 158.724 95.5851 157.239 97.6175 157.579C98.7297 157.723 100.01 158.004 101.105 157.644C101.598 157.473 102.314 157.216 102.383 156.619C102.416 156.22 102.192 155.847 102.294 155.519C102.594 154.897 103.477 154.223 103.079 153.427C102.558 152.624 101.643 152.216 100.904 151.657C99.9742 151.033 99.1526 150.338 98.4723 149.383C97.537 148.144 96.9421 146.556 95.9641 145.35C94.6893 143.754 92.494 142.266 92.6369 145.545L92.6358 145.581L92.6373 145.576ZM69.1615 146.799C69.2563 147.462 69.4023 148.164 69.3635 148.862C69.3129 150.091 68.7072 151.319 68.5712 152.527C68.1913 154.947 70.4943 156.04 72.4374 155.955C74.7648 155.977 75.8657 153.666 76.7346 151.674C77.3553 150.227 78.4842 149.076 79.5725 147.828C80.3152 147.052 81.7461 145.687 81.4144 144.73C80.8938 143.349 79.0736 143.53 77.9462 143.443C75.469 143.507 72.8926 142.952 70.4919 143.934C69.2325 144.415 68.8806 145.238 69.1537 146.761L69.1594 146.799L69.1615 146.799ZM105.567 154.482C104.026 157.705 109.896 157.191 111.109 156.227C112.855 154.978 109.734 153.403 108.638 153.064C107.411 152.603 106.173 153.225 105.583 154.444L105.565 154.48L105.567 154.482ZM99.1616 143.519C98.5547 144.202 101 145.609 101.52 145.882C102.552 146.447 103.571 146.925 104.66 146.898C107.206 146.951 109.698 143.793 106.493 142.234C106.006 141.935 105.254 141.678 105.488 140.917C105.646 140.295 106.132 139.382 105.492 138.883C104.495 138.062 100.66 138.932 99.9967 140.198C99.8937 140.466 100.006 140.738 100.155 140.97C100.455 141.422 100.981 141.98 101.065 142.371C101.24 143.191 99.5863 143.169 99.1754 143.51L99.1638 143.519L99.1616 143.519ZM93.9686 140.918C92.8683 141.361 92.509 142.12 93.8514 142.79C94.5086 143.14 95.7285 143.715 96.1958 143.113C96.3875 142.887 96.4556 142.56 96.4393 142.247C96.384 140.934 94.9951 140.475 94.0139 140.902L93.9686 140.918ZM73.1928 133.423C72.3099 134.537 71.3276 135.698 70.8158 137.047C70.2775 138.464 71.3209 138.816 72.627 138.141C73.83 137.515 74.729 136.261 75.6573 135.277C75.9898 134.934 76.2868 134.687 76.589 134.562C77.3627 134.27 78.1391 134.518 78.7451 133.712C79.2085 133.142 79.5732 132.361 79.6827 131.614C79.9545 129.501 78.1667 129.492 76.9333 130.133C75.5978 130.844 74.3423 132.091 73.226 133.385L73.191 133.426L73.1928 133.423ZM81.2706 133.913C80.486 134.06 79.7189 134.556 79.1275 135.212C78.5662 135.838 78.0832 136.567 77.9125 137.427C77.6332 138.707 78.5147 139.658 79.5798 139.473C80.8972 139.25 81.9871 138.622 83.254 138.38C84.0149 138.22 84.8642 138.274 85.0157 138.431C85.1691 138.718 84.2937 139.288 84.0745 139.489C83.5919 139.858 82.8589 140.394 82.5324 140.792C81.6615 141.914 83.6143 141.633 84.1278 141.443C85.1871 141.131 86.1491 140.445 87.1564 139.714C88.1234 139.003 89.16 138.366 90.214 137.875C91.5205 137.288 92.8997 136.753 93.6578 135.369C94.1747 134.621 94.2872 132.878 93.5408 132.656C93.06 132.573 92.6949 133.075 92.2394 133.16C91.2028 133.391 90.2256 131.335 89.1826 130.913C88.4078 130.515 87.8263 130.817 87.8143 131.55C87.7823 132.192 88.1598 133.151 88.4041 133.828C88.5147 134.163 88.6426 134.511 88.5904 134.858C88.5342 135.222 88.2001 135.496 87.6954 135.616C86.4179 135.902 85.1296 135.145 83.9801 134.504C83.1297 134.021 82.276 133.72 81.3105 133.904L81.2723 133.91L81.2706 133.913ZM77.1913 136.329C76.9844 135.771 75.3321 137.845 75.1965 138.171C74.6982 139.044 75.635 139.278 76.3614 138.524C76.8431 138.004 77.2114 137.074 77.1969 136.352L77.1934 136.329L77.1913 136.329ZM80.6385 131.96C80.2664 132.286 80.5387 132.482 80.8447 132.499C81.2612 132.53 81.8104 132.403 82.1492 132.117C82.8727 131.387 81.757 131.262 81.0885 131.664C80.9273 131.746 80.7785 131.838 80.6689 131.932L80.6363 131.96L80.6385 131.96ZM84.4288 125.999C83.4582 126.323 82.0538 127.4 82.1392 128.335C82.3621 129.957 84.6204 129.328 85.4305 128.655C86.5934 127.833 85.8344 127.106 86.3319 126.286C86.4176 126.076 87.0092 125.58 86.6835 125.475C85.9479 125.413 85.3739 125.664 84.48 125.979L84.4288 125.999ZM79.4873 127.665C78.9332 128.15 80.2156 128.332 80.5082 128.345C80.9046 128.343 81.5144 128.448 81.7401 128.073C81.7157 127.329 80.0212 127.234 79.5145 127.644L79.4873 127.665ZM82.2555 124.774C81.3307 125.608 81.3991 126.211 83.0794 125.616C83.7894 125.376 84.526 125.111 85.2135 124.808C85.8883 124.535 88.037 123.273 87.0341 122.641C85.6547 122.275 83.3619 123.806 82.2877 124.742L82.2533 124.774L82.2555 124.774ZM91.8791 125.583C91.3468 126.562 93.7424 128.172 94.3545 127.567C94.6302 126.742 92.4787 124.894 91.8951 125.559L91.8791 125.583ZM95.5054 129.451C93.7342 129.423 94.1381 131.343 95.573 131.674C96.3158 131.915 97.6513 131.276 97.1053 130.277C96.7719 129.714 96.153 129.476 95.5531 129.451L95.5051 129.449L95.5054 129.451ZM99.2244 130.094C98.8774 130.093 98.458 130.044 98.1819 130.198C97.7212 130.54 97.4549 131.21 97.2265 131.77C96.9301 132.5 97.3399 132.602 97.9822 132.635C98.9135 132.73 100.086 132.377 100.907 133.027C101.367 133.419 101.451 134.125 102.04 134.397C103.232 134.873 104.52 133.669 104.943 132.598C105.194 131.899 105.06 131.294 104.939 130.454C104.769 129.057 103.651 127.74 102.321 127.674C101.523 127.603 100.439 127.805 100.237 128.744C100.088 130.014 100.477 130.09 99.2551 130.096L99.2289 130.096L99.2244 130.094ZM95.425 134.747C95.1326 134.981 94.9061 135.352 94.9425 135.755C95.0903 136.41 96.3386 135.666 96.6075 135.261C97.124 134.509 95.9314 134.305 95.4621 134.72L95.425 134.747ZM107.587 130.925C105.073 132.208 105.868 134.319 108.52 134.296C110.028 134.347 110.741 133.095 109.975 131.788C109.479 130.93 108.501 130.551 107.633 130.908L107.587 130.925ZM111.723 125.704C110.555 125.549 109.377 125.578 108.201 125.57C106.996 125.615 105.157 125.321 104.86 126.281C104.938 127.587 108.247 127.52 109.192 127.995C111.602 128.732 110.857 132.133 113.063 133.079C113.814 133.434 114.771 133.441 115.603 133.335C116.872 133.179 118.508 132.87 120.057 132.602C122.666 132.066 125.915 131.843 127.959 130.171C129.722 128.826 129.996 126.779 127.491 126.196C126.155 125.917 124.77 126.208 123.441 126.707C121.286 127.486 119.335 129.045 117.027 128.961C115.896 128.913 114.575 128.514 114.192 127.416C113.798 126.129 112.918 125.868 111.765 125.712L111.723 125.707L111.723 125.704ZM92.9641 120.669C93.343 120.855 93.5671 121.179 93.6498 121.558C93.7368 121.908 93.8209 122.196 94.39 122.319C95.0252 122.464 96.3806 122.437 97.3245 122.645C98.371 122.771 101.992 124.106 101.393 122.016C100.358 119.786 97.3307 118.942 95.3456 118.295C93.9368 117.936 92.1342 117.842 91.1554 119.098C90.5714 120.153 92.2271 120.263 92.9387 120.658L92.9644 120.671L92.9641 120.669ZM103.294 108.559C102.788 109.465 102.636 110.629 103.445 111.37C103.765 111.699 103.949 111.857 103.71 112.099C103.349 112.466 102.81 112.807 102.653 113.365C102.451 114.54 104.401 114.767 105.381 114.746C106.132 114.726 106.871 114.591 107.605 114.499C108.327 114.429 110.096 114.162 109.249 115.261C108.799 115.93 107.512 116.679 108.073 117.645C109.424 119.318 113.503 118.948 115.098 117.897C115.848 117.447 116.395 116.751 116.936 116.004C117.501 115.214 118.197 114.342 118.429 113.747C118.956 112.213 117.432 111.53 116.378 110.643C115.861 110.233 115.369 109.825 114.798 109.488C114.255 109.161 113.652 108.896 113.077 108.632C111.856 108.079 110.667 107.39 109.396 106.878C106.937 105.778 104.757 105.896 103.315 108.522L103.292 108.562L103.294 108.559ZM102.722 121.14C103.031 121.675 103.213 122.061 103.623 122.283C104.451 122.603 105.511 122.075 106.219 121.576C106.884 121.106 107.433 120.138 106.647 119.505C105.542 118.671 103.51 118.233 102.423 118.195C101.831 118.186 101.505 118.468 101.798 119.213C102.008 119.835 102.376 120.512 102.698 121.101L102.719 121.138L102.722 121.14ZM148.853 92.2644C148.468 91.7768 147.464 91.7914 146.746 91.7436C144.72 91.6384 142.638 91.7605 140.63 91.9771C138.487 92.1636 136.206 92.0441 133.97 92.4275C132.304 92.7727 129.401 93.1388 128.125 93.6778C127.168 94.1395 128.247 94.8035 127.094 95.1074C125.37 95.5576 121.882 96.0698 120.17 97.4989C118.393 99.099 122.665 99.841 123.55 100.239C124.008 100.4 124.08 100.49 123.695 100.5C123.163 100.521 121.661 100.353 120.255 100.154C117.815 99.7439 116.139 99.8599 113.889 101.007C112.387 101.734 109.908 102.818 109.109 103.681C107.592 105.417 111.54 106.732 113.504 106.604C114.338 106.598 115.216 106.439 116.01 106.278C116.653 106.145 117.482 105.991 117.877 106.369C118.619 106.805 120.017 105.935 120.838 105.61C122.101 105.022 123.315 104.397 124.526 103.721C125.214 103.338 126.052 102.837 126.698 102.484C127.075 102.281 127.277 102.21 127.236 102.329C126.947 102.831 125.996 103.619 125.391 104.17C124.078 105.31 122.579 106.366 121.044 107.134C119.927 107.74 118.021 108.306 117.356 108.921C116.029 110.09 119.327 111.879 120.004 112.594C120.342 112.927 120.896 113.283 120.956 113.729C120.949 113.97 120.591 114.101 120.025 114.273C119.621 114.399 119.107 114.532 118.607 114.768C117.037 115.445 115.405 117.596 117.716 118.451C118.771 118.857 120.457 118.59 121.17 118.66C121.458 118.672 121.79 118.802 121.403 119.041C121.031 119.292 119.944 119.653 118.874 119.822C118.221 119.961 117.381 119.956 116.837 120.322C116.308 120.709 116.319 121.537 116.095 122.393C115.892 123.556 114.743 125.042 116.364 125.381C118.555 125.81 121.638 124.666 123.925 124.141C125.4 123.856 126.151 124.297 127.354 124.101C128.272 123.92 129.102 123.133 129.497 122.196C129.724 121.636 129.587 121.029 129.362 120.481C128.665 118.904 128.2 117.358 129.402 115.927C130.185 114.888 131.278 114.072 131.962 112.923C132.302 112.383 132.5 111.656 132.546 111.065C132.601 110.117 132.693 109.238 133.464 108.722C134.757 107.729 137.095 106.792 137.282 104.891C137.289 104.59 137.137 104.326 137.291 104.053C137.495 103.691 138.355 103.164 138.836 102.801C139.675 102.203 140.557 101.543 141.362 100.871C142.728 99.7395 143.912 98.5632 144.731 97.7449C145.017 97.442 145.957 96.579 145.128 96.5743C143.997 96.6225 142.663 96.9681 141.531 96.9613C139.56 96.9463 144.077 95.7089 144.998 95.2359C145.884 94.8568 149.158 93.3458 148.86 92.2802L148.853 92.2667L148.853 92.2644ZM124.3 134.791C122.805 134.348 120.944 134.694 119.557 135.394C117.407 136.586 117.425 139.408 117.156 142.004C117.117 143.527 116.606 145.594 117.563 146.844C119.433 148.797 124.112 148.377 126.228 147.927C126.96 147.764 127.633 147.42 128.254 147.008C129.033 146.533 129.936 146.161 130.839 145.794C132.629 145.019 133.712 145.622 135.175 146.764C136.51 147.757 137.677 148.898 139.086 150.039C140.13 150.903 141.317 151.695 142.262 152.665C144.402 154.71 143.431 158.325 141.268 159.873C140.239 160.646 138.871 161.066 137.859 161.435C137.186 161.643 136.226 162.199 136.291 162.706C136.335 163.266 136.877 163.538 137.661 163.667C139.238 163.845 140.758 162.991 142.34 163.115C143.557 163.207 144.617 163.494 145.343 164.406C145.824 165.103 145.968 165.762 146.851 166.051C147.592 166.341 153.002 167.911 152.713 166.558C152.303 165.699 151.296 165.154 150.741 164.435C149.73 163.093 153.036 164.644 153.424 164.496C154.788 164.644 154.979 163.021 154.454 161.961C153.451 159.495 149.009 158.86 149.397 155.698C149.738 154.248 151.348 154.574 152.345 155.359C153.407 156.006 155.168 158.216 156.235 156.743C156.83 155.903 157.492 152.265 156.453 151.436C155.762 150.877 154.771 150.8 153.926 150.555C152.621 150.243 151.181 149.742 149.845 149.321C148.856 148.987 148.11 148.883 147.545 148.509C147.144 148.195 147.451 147.841 147.978 147.329C150.026 145.599 149.415 144.597 147.499 142.961C146.199 141.893 144.783 140.849 143.305 140.111C141.798 139.372 140.257 139.273 138.772 138.488C136.787 137.439 135.312 136.332 133.081 137.1C131.533 137.509 129.886 138.964 128.305 137.943C126.99 137.125 125.872 135.212 124.33 134.805L124.296 134.794L124.3 134.791ZM127.459 134.34C126.545 135.029 127.834 136.012 128.521 136.295C129.984 137.079 132.57 136.629 133.411 135.939C134.644 135.025 132.14 134.59 131.481 134.404C130.342 134.152 128.397 133.816 127.487 134.324L127.459 134.34ZM125.339 161.874C125.028 162.245 124.879 162.919 124.794 163.754C124.588 165.326 124.662 167.863 125.766 168.829C127.134 169.829 128.51 168.054 129.791 167.598C130.333 167.367 130.911 167.256 131.476 167.152C131.998 167.003 133.241 166.993 132.978 166.134C132.63 165.151 130.669 163.723 129.585 163.041C128.379 162.326 126.431 160.738 125.357 161.85L125.337 161.874L125.339 161.874ZM150.208 255.952C148.602 254.069 145.795 253.188 143.473 253.765C141.853 254.086 139.852 255.263 142.244 254.859C143.759 254.666 144.679 254.253 146.024 255.331C147.509 256.299 148.84 257.067 149.559 258.879C149.678 259.119 149.806 259.354 149.961 259.566C150.315 260.063 150.844 260.37 151.392 260.511C152.006 260.671 153.403 260.76 153.191 259.723C152.913 258.803 151.929 257.904 151.135 256.973C150.838 256.641 150.54 256.303 150.239 255.983L150.21 255.952L150.208 255.952ZM154.555 261.594C154.363 263.142 153.932 263.305 152.668 263.609C152.496 263.674 152.51 263.753 152.711 263.923C154.697 265.567 156.276 264.956 158.427 264.584C159.253 264.478 160.195 264.605 160.854 264.443C162.653 264.008 161.603 262.532 160.368 261.918C159.199 261.26 157.258 260.883 156.039 260.802C155.146 260.778 154.741 260.912 154.562 261.569L154.555 261.594ZM148.707 262.854C148.402 262.513 147.767 262.21 147.349 262.283C146.97 262.33 146.787 262.757 146.952 263.121C147.276 264.056 149.563 263.927 148.739 262.893L148.707 262.856L148.707 262.854ZM163.965 264.762C163.265 264.863 163.389 265.505 163.941 265.789C164.672 266.23 166.102 266.002 166.394 265.71C166.805 265.179 164.249 264.63 164.003 264.756L163.965 264.762ZM137.459 152.121C135.69 152.939 136.92 155.25 138.194 155.967C138.56 156.188 138.998 156.215 139.22 155.812C139.798 154.804 139.243 151.498 137.496 152.108L137.459 152.121ZM131.017 168.593C130.233 168.755 129.022 169.154 129.035 170.229C129.077 170.711 129.531 171.068 130.107 170.964C131.101 170.927 133.269 168.354 131.06 168.587L131.015 168.594L131.017 168.593ZM134.665 169.764C134.224 170.246 134.585 171.358 135.237 171.358C135.737 171.352 136.235 170.315 136.136 169.784C135.968 169.081 135.031 169.37 134.691 169.733L134.663 169.764L134.665 169.764ZM108.353 122.367C107.932 122.553 106.192 123.025 106.214 123.402C106.624 123.666 107.858 123.463 109.183 123.321C109.77 123.242 110.373 123.141 110.945 122.995C111.485 122.853 111.948 122.687 112.4 122.415C113.293 121.876 113.606 121.132 113.173 120.93C112.351 120.696 111.569 121.211 110.774 121.475C110.054 121.762 109.207 122.07 108.407 122.349L108.355 122.367L108.353 122.367ZM97.3981 114.024C96.575 114.581 96.5592 115.287 97.6117 115.773C98.3241 116.086 99.3046 116.452 100.004 116.128C100.575 115.815 100.495 114.926 100.169 114.384C99.5891 113.263 98.2746 113.374 97.4355 113.999L97.4002 114.023L97.3981 114.024ZM217.263 142.288C216.112 142.923 214.964 143.604 213.967 144.488C212.911 145.289 211.89 148.409 210.415 146.892C209.658 146.121 208.647 144.872 207.578 144.753C206.661 144.723 206.113 145.916 206.095 146.813C206.064 147.654 206.9 148.18 207.499 148.668C208.077 149.108 208.679 149.57 209.14 150.161C209.619 150.795 210.218 151.308 210.984 151.472C213.088 152.084 215.29 151.646 217.406 151.064C219.834 150.306 222.428 148.21 223.872 146.009C225.364 143.702 224.459 142.072 222.003 141.402C220.341 141.006 218.767 141.482 217.301 142.268L217.263 142.288ZM368.556 242.479C367.839 243.489 368.47 246.901 369.605 247.604C370.113 247.97 370.774 247.752 371.026 247.176C371.533 246.285 371.025 244.527 370.307 243.568C369.876 242.972 369.147 242.013 368.573 242.462L368.556 242.479ZM367.812 241.548C367.894 241.723 368.368 242.33 368.351 241.965C368.305 241.789 368.07 241.231 367.888 241.479C367.861 241.517 367.867 241.511 367.805 241.605M430.603 275.685C429.615 277.464 427.512 278.204 425.955 279.36C424.88 280.061 423.726 281.303 423.054 282.149C422.474 282.821 421.917 283.549 421.83 284.517C421.723 285.571 421.917 286.773 422.079 287.883C422.321 289.462 422.569 290.919 423.083 292.313C423.784 294.173 425.017 295.735 425.756 297.578C425.943 298.02 426.11 298.466 426.24 298.93C426.716 300.519 426.426 301.935 426.851 303.367C427.061 303.993 427.471 304.415 428.096 304.604C430.18 305.203 431.992 303.458 433.742 302.504C435.265 301.726 436.952 301.002 438.155 299.754C438.692 299.242 439.184 298.67 439.746 298.194C441.412 296.928 443.19 295.866 445.12 295.089C447.247 294.374 449.732 294.522 451.752 295.619C452.432 295.963 453.141 296.368 453.874 296.447C454.351 296.501 454.78 296.4 455.203 296.242C455.943 295.998 456.33 295.603 456.809 296.134C457.069 296.436 457.194 297.177 457.599 297.767C457.87 298.173 458.212 298.487 458.556 298.832C459.486 299.747 460.277 300.877 461.357 301.632C462.311 302.356 463.398 302.868 464.542 302.825C466.124 302.73 467.673 302.448 469.237 302.231C471.471 301.906 473.766 300.581 474.49 298.123C474.703 297.435 474.825 296.621 474.938 295.887C475.213 293.574 476.016 291.477 476.466 289.188C476.961 286.207 477.096 283.076 476.171 280.194C475.746 278.799 474.841 277.732 473.852 276.741C472.965 275.786 472.043 275.041 471.157 274.134C470.382 273.313 469.572 272.52 468.637 271.921C466.425 270.526 464.748 269.092 463.729 266.469C462.707 263.79 460.636 261.8 458.787 259.759C457.438 258.316 457.093 260.015 457.138 261.27C457.152 262.975 457.608 264.886 457.289 266.562C456.76 269.322 454.673 268.44 452.846 267.574C451.608 266.956 449.932 266.428 449.642 264.767C449.387 263.496 450.151 261.51 448.676 260.911C447.016 260.202 445.113 261.343 443.78 262.316C443 262.883 442.267 263.477 441.667 264.409C441.116 265.324 440.744 266.536 439.615 266.711C438.96 266.856 438.208 266.799 437.532 266.935C435.831 267.23 434.803 268.827 433.655 270.195C432.942 271.067 432.226 271.964 431.771 273.03C431.389 273.893 431.103 274.826 430.623 275.648L430.602 275.683L430.603 275.685ZM390.5 244.909C389.792 245.494 391.281 246.406 391.77 246.866C392.358 247.345 392.949 247.803 393.515 248.302C394.949 249.658 396.169 251.12 397.461 252.713C398.633 254.26 399.627 255.85 401.031 257.208C402.244 258.318 405.288 261.289 406.794 260.196C407.401 259.72 407.62 258.523 407.422 257.654C407.037 255.799 405.457 254.713 404.343 253.395C401.688 249.801 401.292 250.056 397.638 248.196C395.499 247.209 392.72 244.095 390.514 244.899L390.498 244.909L390.5 244.909ZM407.783 260.186C407.128 260.371 406.623 261.022 407.143 261.619C407.558 262.119 408.602 262.344 409.26 262.391C410.742 262.518 412.169 262.461 413.691 262.561C415.15 262.646 417.952 262.67 418.917 262.12C419.883 261.503 417.816 260.717 417.327 260.543C415.768 259.949 414.222 260.154 412.678 260.365C411.091 260.586 409.381 259.779 407.815 260.179L407.784 260.188L407.783 260.186ZM421.897 261.399C421.294 261.629 420.966 262.181 422.147 262.145C423.142 262.112 425.146 261.48 425.618 261.029C426.093 260.52 424.982 260.661 424.735 260.691C423.844 260.802 422.746 261.016 421.933 261.381L421.897 261.399ZM426.799 260.601C426.367 260.902 427.123 261.028 427.341 261.024C428.988 261.119 432 259.775 433.479 259.224C433.61 259.171 433.968 259.002 433.689 258.991C432.899 259.069 431.983 259.371 431.175 259.56C429.681 260.024 428.219 260.081 426.812 260.589L426.794 260.599L426.799 260.601ZM432.471 261.083C431.831 261.964 431.667 262.988 433.137 262C433.789 261.545 434.452 260.919 435.058 260.359C435.837 259.582 436.498 259.043 436.361 258.664C436.08 258.462 435.663 258.688 435.356 258.797C434.311 259.262 433.166 260.029 432.496 261.046L432.471 261.081L432.471 261.083ZM427.244 261.995C426.986 261.885 426.697 261.806 426.424 261.809C425.444 261.837 425.435 262.516 426.352 262.88C426.848 263.077 427.436 263.255 427.959 263.185C428.666 263.04 427.744 262.182 427.293 262.019L427.244 261.998L427.244 261.995ZM417.861 239.552C417.278 240.495 416.729 241.439 416.049 242.296C415.41 243.128 414.572 243.875 413.928 244.705C413.209 245.622 412.499 246.876 411.459 247.287C410.908 247.548 410.243 247.668 409.852 248.213C409.017 249.579 409.888 251.356 410.711 252.602C411.686 254.118 413.231 255.015 414.997 255.051C417.572 255.001 420.271 255.825 421.224 252.558C421.465 251.805 421.586 250.96 421.8 250.187C422.467 248 423.314 246.805 422.321 244.501C422.014 243.663 421.805 242.742 421.959 241.844C422.051 241.082 422.24 240.287 422.096 239.528C421.861 238.171 420.393 237.47 419.3 238.022C418.686 238.326 418.271 238.915 417.886 239.514L417.863 239.551L417.861 239.552ZM503.998 286.228C503.669 286.516 505.088 287.684 505.326 288.006C506.154 288.842 506.799 289.983 507.022 291.228C507.19 292.075 507.327 292.92 507.527 293.753C507.782 294.779 507.873 295.636 508.334 296.263C509.612 297.924 510.95 295.217 511.575 294.06C512.011 293.148 512.499 292.204 512.712 291.222C512.817 290.788 512.784 290.279 512.346 290.105C511.815 289.846 510.792 289.743 509.895 289.66C508.869 289.584 507.896 289.022 507.12 288.312C506.489 287.761 505.773 287.208 505.097 286.716C504.761 286.488 504.359 286.2 504.005 286.225L503.996 286.226L503.998 286.228ZM506.18 296.386C504.766 297.172 504.413 299.163 503.41 300.458C502.044 302.388 499.813 304.086 498.805 306.267C497.152 309.624 501.843 308.955 502.997 307.458C503.79 306.632 504.234 305.353 504.747 304.196C505.087 303.426 505.478 302.694 505.919 301.986C506.657 300.834 507.839 299.136 507.96 297.913C508.118 296.837 507.132 295.868 506.204 296.373L506.177 296.387L506.18 296.386ZM501.081 307.483C500.783 307.369 500.448 307.495 500.26 307.763C499.902 308.279 499.786 309.491 500.183 309.696C500.612 309.753 500.949 309.267 501.205 308.933C501.532 308.509 501.71 307.744 501.114 307.5L501.08 307.486L501.081 307.483ZM468.526 305.386C466.704 306.513 469.917 311.46 472.108 309.045C473.024 308.147 473.904 305.349 473.381 304.283C472.966 303.788 472.021 304.482 471.486 304.62C470.617 305.028 469.355 304.997 468.555 305.373L468.527 305.389L468.526 305.386ZM445.959 247.689C445.218 247.82 444.36 247.115 443.66 246.663C442.918 246.138 441.719 245.692 441.026 245.874C440.58 245.931 440.066 246.422 440.607 246.824C441.089 247.179 441.713 247.378 442.191 247.763C442.695 248.146 442.948 248.617 443.351 249.056C443.877 249.645 444.405 249.926 445.187 250.2C446.694 250.722 448.571 251.006 449.926 251.907C452.164 253.233 450.472 255.457 452.107 255.958C453.591 256.351 455.322 256.667 456.835 256.325C457.906 256.048 458.875 255.21 459.856 254.708C460.453 254.395 461.1 254.21 461.775 254.243C463.451 254.375 464.97 255.282 466.601 255.839C472.216 257.868 466.404 253.768 464.956 252.609C461.585 249.981 460.29 247.746 455.926 246.588C453.547 245.99 450.942 245.328 448.651 246.359C447.595 246.824 446.763 247.584 445.987 247.689L445.958 247.694L445.959 247.689ZM432.591 244.017C432.072 244.303 431.57 244.546 431.005 244.694C430.299 244.888 429.582 244.892 428.861 244.946C427.703 245.029 426.545 245.377 425.824 246.193C424.894 247.355 424.836 248.912 424.586 250.478C424.447 251.516 424.291 252.537 424.323 253.593C424.366 255.389 425.214 257.884 426.159 259.118C426.898 260.062 427.154 258.317 427.182 257.723C427.295 257.146 426.93 254.889 427.682 255.018C428.268 255.285 428.907 255.903 429.537 256.19C430.374 256.684 431.09 256.482 430.71 255.099C430.357 253.97 429.528 252.908 429.78 251.66C429.873 250.543 431.37 249.269 430.777 249.104C430.035 249.117 429.275 249.559 428.505 249.629C427.711 249.812 426.438 249.564 426.596 248.519C427.188 246.17 430.2 246.72 431.859 245.782C432.685 245.361 433.492 244.727 433.952 243.872C434.239 243.264 433.638 243.424 432.623 244.001L432.588 244.018L432.591 244.017ZM435.823 241.837C435.117 241.61 434.927 242.838 434.842 243.454C434.593 244.708 435.274 246.668 435.934 247.229C436.038 247.324 436.157 247.397 436.28 247.395C436.966 247.184 436.76 245.554 436.696 244.837C436.559 243.894 436.508 242.306 435.842 241.849L435.821 241.837L435.823 241.837ZM434.444 251.098C433.772 250.894 432.615 251.177 432.769 252.091C432.922 252.763 433.646 252.913 434.193 252.843C435.627 252.691 436.406 251.619 434.489 251.111L434.442 251.101L434.444 251.098ZM436.757 250.424C436.241 251.211 436.304 252.24 437.417 252.132C438.315 252.064 439.187 251.699 440.077 251.55C440.536 251.457 440.953 251.404 441.345 251.27C441.501 251.211 441.605 251.142 441.644 251.05C441.747 250.421 440.372 249.751 439.85 249.563C438.778 249.151 437.413 249.349 436.779 250.387L436.757 250.424ZM407.513 219.047C406.608 219.068 405.096 219.861 405.109 221.04C405.149 221.815 405.905 222.244 406.548 222.094C407.293 221.941 407.91 221.182 408.138 220.431C408.378 219.741 408.262 219.066 407.55 219.049L407.513 219.047ZM422.083 218.931C421.213 219.668 421.082 221.044 420.949 222.153C420.827 223.094 420.872 223.929 421.405 224.755C422.21 226.085 423.785 226.883 425.089 227.184C425.862 227.38 426.876 227.647 427.424 227.298C428.004 226.826 425.613 225.872 425.298 225.609C424.78 225.291 424.276 224.951 424 224.389C423.306 223.083 424.234 220.893 423.665 219.539C423.358 218.792 422.687 218.479 422.108 218.913L422.083 218.931ZM430.142 231.955C429.607 232.365 429.167 232.917 428.603 233.293C428.135 233.599 427.644 233.825 427.205 234.194C426.58 234.752 426.095 235.383 426.05 236.051C426.078 236.282 426.501 236.115 426.683 236.085C427.092 235.987 427.558 235.902 427.966 236.108C428.856 236.449 429.916 238.566 430.778 237.878C431.778 237.085 432.412 235.898 432.157 234.381C431.924 233.416 431.383 231.101 430.166 231.937L430.142 231.955ZM427.124 228.631C426.191 228.496 425.174 228.087 424.224 228.182C423.682 228.283 423.387 228.753 423.493 229.211C423.609 229.715 424.066 230.031 424.429 230.327C425.25 230.828 425.381 231.748 425.598 232.648C425.672 232.887 425.755 233.122 425.958 233.247C426.855 233.648 427.728 231.716 427.899 230.74C428.104 229.714 428.39 228.875 427.152 228.639L427.124 228.631ZM428.439 227.361C427.965 227.942 428.281 228.868 428.467 229.561C428.588 229.985 428.659 230.414 428.755 230.808C428.793 230.949 428.846 231.129 428.981 231.176C429.306 231.259 429.537 231.048 429.715 230.733C430.103 229.994 430.423 228.436 429.609 227.761C429.295 227.499 428.822 227.111 428.455 227.349L428.44 227.363L428.439 227.361ZM422.015 230.612C421.667 230.763 421.374 231.384 421.17 231.79C420.787 232.61 420.284 233.741 419.857 234.539C419.59 235.014 419.082 236.141 419.924 235.396C420.485 234.826 421.172 233.996 421.665 233.17C422.036 232.553 422.342 231.548 422.25 230.863C422.22 230.663 422.152 230.572 422.029 230.603L422.014 230.605L422.015 230.612ZM469.261 246.259C468.847 246.466 468.322 247.089 467.765 247.67C467.285 248.197 466.613 248.575 465.989 248.857C465.587 249.067 465.069 249.246 464.825 249.643C464.627 249.998 465.038 250.354 465.846 250.407C467.358 250.489 469.13 249.508 469.758 248.031C470.012 247.454 470.23 245.851 469.287 246.246L469.263 246.259L469.261 246.259ZM472.019 247.29C472.441 248.214 473.651 249.07 474.596 249.319C475.302 249.472 474.968 248.876 474.675 248.557C474.191 247.984 473.22 247.171 472.606 246.942C472.324 246.809 471.832 246.778 472.008 247.261L472.019 247.293L472.019 247.29ZM420.866 208.173C419.646 208.54 418.824 210.032 419.376 211.407C419.621 212.192 420.503 213.61 421.082 213.551C421.796 213.429 421.886 212.113 422.041 211.411C422.261 210.114 422.368 207.737 420.901 208.16L420.867 208.17L420.866 208.173ZM441.159 145.03C440.937 145.677 440.878 146.758 440.836 147.526C440.781 148.794 440.769 150.053 441.007 151.342C441.296 152.853 441.635 154.352 441.727 155.896C441.846 157.595 441.936 159.374 442.161 161.122C442.306 162.455 442.711 164.574 444.102 164.554C444.506 164.532 444.818 164.163 444.747 163.673C444.698 163.274 444.48 162.819 444.329 162.441C443.768 161.038 442.947 159.113 444.052 157.903C444.489 157.393 445.424 157.22 445.497 156.81C445.559 156.207 445.221 155.717 444.992 155.086C444.503 153.898 443.884 152.717 443.41 151.517C442.862 150.126 442.54 148.8 442.251 147.315C442.152 146.883 441.62 144.081 441.166 145.015L441.158 145.033L441.159 145.03ZM443.588 165.985C443.042 166.861 443.032 168.098 442.606 169.227C442.073 170.692 440.925 172.166 441.36 173.858C441.546 174.527 441.871 174.87 442.034 174.758C442.32 174.42 442.259 173.796 442.508 173.405C442.858 172.759 443.579 172.761 444.283 172.659C445.771 172.516 447.207 171.97 448.227 170.715C448.804 170.005 449.692 168.636 448.755 167.953C447.717 167.186 446.332 166.766 445.216 166.177C444.643 165.893 443.935 165.551 443.602 165.966L443.585 165.986L443.588 165.985ZM442.948 174.709C442.528 175.624 442.489 176.702 442.421 177.815C442.338 179.667 442.011 181.79 440.645 182.994C440.071 183.43 439.467 183.463 439.022 183.778C438.338 184.295 438.094 185.262 437.539 185.93C436.93 186.786 436.069 187.178 435.102 187.745C434.26 188.216 433.494 188.781 432.798 189.547C431.907 190.576 430.429 192.354 430.476 193.828C430.518 194.718 431.029 195.893 431.72 196.323C432.001 196.458 432.219 196.322 432.429 196.043C432.864 195.448 432.868 194.575 432.785 193.743C432.728 193.014 432.599 192.498 432.72 191.914C432.92 191.077 433.963 190.626 434.721 190.302C435.443 190.011 436.24 189.96 436.896 189.996C437.877 190.037 438.456 190.212 439.234 189.871C439.886 189.551 440.333 188.916 440.951 188.52C441.77 187.935 442.804 187.849 443.694 187.375C444.524 186.969 444.995 186.306 445.091 185.34C445.239 184.108 444.998 182.626 445.07 181.336C445.15 179.944 445.33 178.592 445.185 177.189C445.131 176.358 444.915 175.232 444.503 174.636C443.996 173.811 443.279 173.948 442.957 174.684L442.944 174.71L442.948 174.709ZM436.706 188.479C435.253 188.549 433.481 189.941 433.654 191.747C433.772 193.251 434.708 193.626 435.629 192.826C436.606 192.121 439.557 188.666 436.747 188.477L436.708 188.478L436.706 188.479ZM501.562 117.16C501.02 117.086 500.363 117.058 499.965 117.31C499.678 117.51 499.734 117.78 500.107 118.015C500.796 118.435 501.678 118.645 502.652 118.753C503.348 118.795 504.123 118.904 504.743 118.675C505.558 117.961 502.071 117.213 501.618 117.169L501.562 117.16ZM483.779 97.9177C482.89 98.6674 483.899 99.5486 484.91 99.6197C485.745 99.6834 486.538 99.4315 487.401 99.217C488.22 98.978 488.954 98.831 489.584 98.486C490.151 98.1647 490.187 97.7171 489.721 97.4605C488.879 97.078 487.89 97.1504 486.726 97.2684C485.796 97.4281 484.575 97.4226 483.803 97.9021L483.78 97.9201L483.779 97.9177ZM436.849 85.8932C437.134 86.795 438.107 87.333 438.898 87.632C440.479 88.213 442.224 88.072 443.592 87.1563C444.707 86.4351 444.541 85.7247 443.211 85.6081C442.247 85.5109 441.129 85.4971 440.223 85.3718C439.404 85.2719 436.827 84.4807 436.846 85.8673L436.849 85.8908L436.849 85.8932ZM429.441 89.9011C427.892 91.9211 433.238 94.1692 434.616 94.1077C435.146 94.0709 435.201 93.5627 434.712 92.9201C434.183 92.2524 433.532 91.7714 432.864 91.216C431.943 90.4969 430.405 89.4599 429.459 89.8888L429.443 89.9008L429.441 89.9011ZM435.973 85.1961C435.709 83.9453 433.564 83.1921 432.501 82.694C431.101 82.0857 429.989 82.8737 428.626 83.0098C427.821 83.0929 426.99 82.894 426.177 82.9253C423.948 82.9854 423.017 85.5778 424.471 87.4112C426.367 89.6682 428.25 88.2517 430.332 87.6032C432.075 87.2391 434.151 87.755 435.537 86.3269C435.809 86.0551 436.033 85.6246 435.976 85.2247L435.972 85.1988L435.973 85.1961ZM362.688 65.6679C362.102 65.9415 361.554 66.5363 360.905 67.1294C359.893 68.1043 358.04 69.8337 358.36 71.4704C358.809 72.6766 360.034 72.7032 361.362 73.267C363.211 73.9711 364.994 75.036 366.955 75.2471C368.628 75.3719 371.226 75.7705 371.36 73.3873C371.379 72.2834 370.667 71.189 369.912 70.529C369.415 70.1809 368.74 70.1026 368.211 69.6777C367.849 69.4078 367.603 69.0195 367.362 68.6233C366.874 67.8579 366.549 66.7868 365.747 66.1916C364.872 65.5546 363.678 65.2252 362.72 65.6534L362.69 65.6676L362.688 65.6679ZM374.14 72.9243C373.045 73.4189 370.422 76.6009 370.937 77.8982C371.419 78.6716 373.133 78.0979 374.224 77.9693C375.437 77.7332 376.682 77.6221 377.884 77.3228C380.395 76.6288 379.877 75.4402 377.962 74.6621C377.262 74.3303 375.916 73.9878 375.49 73.4896C375.301 73.2658 375.27 73.0854 375.213 72.8512C375.166 72.452 374.486 72.7134 374.172 72.9098L374.14 72.9266L374.14 72.9243ZM311.313 68.6005C310.6 68.8956 308.768 70.5976 309.63 71.1238C310.498 71.3796 311.515 70.7959 312.414 70.4126C313.531 69.852 315.644 68.658 314.52 68.0561C313.509 67.7327 312.303 68.1024 311.361 68.5763L311.315 68.6025L311.313 68.6005ZM314.73 71.9547C313.722 72.9746 314.186 74.1521 315.672 74.2883C316.263 74.3241 316.862 74.1231 317.363 73.8047C318.056 73.3947 318.578 72.3928 318.173 71.5502C317.512 70.3615 315.536 70.9917 314.763 71.9183L314.732 71.952L314.73 71.9547ZM307.358 72.7672C307.028 72.9926 307.053 73.3373 307.443 73.4924C307.938 73.7349 309.074 73.7773 310.063 73.556C310.497 73.4615 310.955 73.3155 311.35 73.1309C311.736 72.9716 312.545 72.4407 311.749 72.174C310.471 71.9054 308.464 72.1026 307.384 72.7513L307.358 72.7696L307.358 72.7672ZM295.032 76.1907C295.784 76.1757 298.744 75.4645 298.933 76.2797C298.902 76.6256 298.515 76.9341 298.405 77.2031C298.204 77.7407 299.221 77.2385 299.507 77.1064C300.53 76.625 301.592 75.895 302.569 75.2667C303.066 74.9465 303.597 74.6428 304.062 74.3419C304.279 74.1841 304.5 74.0689 304.557 73.8392C304.398 73.094 301.435 73.5389 300.302 73.686C298.638 73.942 297.21 74.297 295.683 74.8257C294.473 75.2078 291.736 76.5322 294.985 76.1931L295.032 76.186L295.032 76.1907ZM305.958 75.0483C305.608 75.0146 302.82 75.6952 303.666 76.1659C304.353 76.3819 305.572 76.2988 306.411 76.1915C308.924 75.7471 307.601 74.7979 306.02 75.0414L305.958 75.0507L305.958 75.0483ZM313.956 74.2759C313.608 74.0855 313.269 74.1223 312.685 74.1335C311.898 74.1852 310.998 74.3595 310.296 74.7707C308.923 75.6199 310.165 76.1895 311.26 75.981C311.697 75.9942 314.378 74.8539 313.966 74.2887L313.954 74.2785L313.956 74.2759ZM320.004 71.1488C317.412 73.4511 321.005 72.5408 322.041 71.7834C322.901 71.2737 323.68 70.0264 323.271 69.3092C322.535 68.2425 320.734 70.5962 320.038 71.1171L320.004 71.1488ZM234.26 163.613C234.039 166.341 235.339 164.897 236.276 166.066C236.62 166.622 236.845 167.898 237.508 168.488C238.466 169.56 241.114 170.41 240.095 172.28C239.561 173.248 238.867 174.47 238.757 175.78C238.705 176.459 238.616 177.33 239.261 177.687C240.218 178.242 241.788 177.911 240.674 179.308C240.386 179.803 237.738 182.208 238.66 182.542C239.136 182.622 240.949 181.87 241.871 181.56C244.468 180.552 247.516 180.073 249.706 178.334C250.028 178.047 249.971 177.741 249.81 177.385C249.648 176.999 249.399 176.351 249.181 175.629C249.037 175.177 248.893 174.721 248.694 174.289C248.376 173.583 247.91 172.987 247.671 172.622C247.105 171.806 247.938 171.255 246.97 170.511C245.659 169.541 243.807 168.116 242.3 167.219C240.209 166.035 239.548 165.788 240.374 163.64C240.56 162.984 240.776 162.197 240.297 161.646C239.671 160.967 238.515 161.156 238.011 160.304C237.768 159.911 237.686 159.36 237.226 159.257C235.378 159.242 234.477 161.802 234.265 163.572L234.26 163.613ZM232.831 168.853C232.089 169.198 231.89 170.009 231.54 170.728C231.34 171.16 231.095 171.557 230.836 171.967C230.569 172.389 230.282 172.848 230.133 173.342C229.814 174.385 230.382 175.011 230.328 176.13C230.326 177.017 229.805 178.478 230.103 179.267C230.65 180.49 232.26 179.422 233.061 178.994C234.363 178.222 235.675 177.193 235.959 175.607C236.221 174.098 236.288 172.28 235.984 170.728C235.643 169.041 234.263 168.202 232.862 168.841L232.834 168.855L232.831 168.853ZM262.945 195.561C262.581 196.493 262.16 197.78 262.554 198.807C262.72 199.22 263.035 199.499 263.379 199.336C263.852 199.152 263.803 197.65 263.719 196.927C263.693 196.52 263.38 194.526 262.959 195.527L262.945 195.561ZM263.111 200.24C262.175 200.956 261.821 202.319 262.138 203.526C262.454 205 263.84 205.745 264.574 204.23C264.97 203.471 265.146 202.24 264.958 201.329C264.795 200.296 264.022 199.523 263.142 200.216L263.111 200.24ZM285.309 209.45C283.524 210.174 285.895 210.321 286.478 210.293C287.476 210.301 289.588 210.066 289.98 209.76C290.142 209.656 290.104 209.486 289.937 209.389C289.715 209.252 289.51 209.201 289.193 209.138C288.16 208.957 286.473 209.015 285.348 209.435L285.309 209.45ZM296.736 208.396C296.177 208.6 295.695 209.209 296.473 209.64C297.053 209.927 297.769 209.927 298.344 209.672C298.918 209.436 299.796 208.434 299.368 207.89C298.897 207.582 297.396 208.159 296.777 208.38L296.736 208.398L296.736 208.396ZM255.106 204.29C253.441 204.697 253.888 205.596 255.353 205.377C255.922 205.27 256.422 204.783 256.337 204.474C256.146 204.056 255.569 204.21 255.163 204.276L255.108 204.289L255.106 204.29ZM170.917 189.389C170.197 189.925 169.785 191.055 169.181 192.444C168.754 193.503 168.37 194.59 167.94 195.646C167.438 196.916 166.909 197.912 167.015 198.54C167.116 199.155 167.711 199.334 168.222 199.444C169.101 199.614 170.395 199.684 171.489 199.838C172.236 199.946 172.983 200.014 173.719 200.15C174.596 200.316 175.291 200.774 175.864 200.838C177.082 201.039 176.916 199.418 176.72 198.524C175.518 193.225 171.435 194.875 171.221 191.487C171.174 190.936 171.183 190.399 171.173 190.03C171.166 189.575 171.128 189.309 170.925 189.385L170.912 189.387L170.917 189.389ZM65.7125 202.965C65.4346 203.978 66.5248 205.268 67.2199 206.002C67.7006 206.535 68.6336 207.164 68.7516 206.749C68.9885 205.781 68.0613 203.579 67.2781 202.953C66.6642 202.399 65.9385 202.388 65.7231 202.935L65.7125 202.965ZM72.2428 208.799C72.3153 209.11 72.7249 209.414 73.3537 209.893C74.4741 210.702 76.0156 211.573 77.3471 211.822C78.0017 211.994 79.5412 211.908 79.0609 210.899C78.5016 210.102 77.5213 209.882 76.6629 209.636C75.7653 209.419 74.8299 209.223 73.9344 208.991C72.9545 208.744 72.266 208.562 72.2474 208.786L72.2492 208.798L72.2428 208.799ZM38.2658 199.754C37.6594 199.802 36.9702 200.05 36.4741 200.459C35.8426 200.963 35.624 201.953 35.8134 202.364C36.1203 202.895 36.6741 202.408 37.0104 202.119C37.4273 201.731 37.9369 201.195 38.3574 200.802C38.9299 200.281 39.4428 199.723 38.3068 199.752L38.2658 199.754ZM37.6201 198.784C37.2111 199.007 36.8302 199.723 37.6157 199.35C38.0434 199.121 38.5539 198.809 38.9763 198.603C39.1987 198.495 39.2775 198.414 39.074 198.372C38.6105 198.317 38.0775 198.494 37.6671 198.75L37.6197 198.782L37.6201 198.784ZM18.7796 198.09C18.4293 198.256 18.1027 198.378 17.8199 198.56C17.7365 198.625 17.6597 198.678 17.6989 198.78C17.7373 198.849 17.8196 198.891 17.8991 198.93C18.2893 199.104 19.2778 199.277 19.8585 199.115C20.5645 198.994 20.7718 198.001 20.0183 197.79C19.6167 197.685 19.2253 197.896 18.8263 198.069L18.7796 198.09ZM330.29 286.461C329.779 287.877 328.705 288.712 327.577 289.606C326.861 290.2 326.08 290.82 325.761 291.774C325.38 292.866 325.976 294.127 326.268 295.241C326.551 296.249 326.452 297.297 326.226 298.329C326.053 299.185 325.85 300.049 325.861 300.932C325.892 302.827 326.901 304.778 328.249 305.99C329.204 306.855 330.545 306.73 331.462 305.976C332.69 304.983 332.556 303.618 332.678 301.85C332.728 301.008 332.799 300.079 332.879 299.166C333.055 297.192 333.273 295.008 333.301 293.208C333.34 292.015 333.244 290.652 333.348 289.504C333.436 288.481 333.703 287.799 333.688 286.861C333.677 285.651 332.932 284.021 332.194 283.327C330.972 282.202 330.731 285.673 330.305 286.418L330.288 286.461L330.29 286.461ZM307.084 119.563C306.649 119.715 306.1 120.048 305.881 120.379C305.555 120.791 305.741 121.328 306.223 121.431C306.807 121.597 307.719 121.335 308.432 120.881C309.285 120.394 310.02 119.35 308.299 119.322C307.94 119.328 307.524 119.405 307.139 119.542L307.084 119.563ZM329.801 87.6356C328.762 87.2949 327.913 88.0889 326.782 88.8607C325.825 89.5629 324.629 90.4261 323.461 91.1265C321.589 92.3394 319.451 93.0228 317.621 94.2222C316.786 94.7882 316.015 95.4646 315.281 96.1933C313.625 97.965 311.8 99.6995 311.328 102.153C311.051 103.887 310.859 105.342 310.146 107.074C308.433 110.816 308.901 112.829 312.663 114.184C313.783 114.58 315.18 114.788 316.259 114.656C317.126 114.554 317.429 114.157 316.763 113.094C315.357 110.927 314.161 107.461 315.029 104.77C315.533 103.165 316.557 101.991 317.456 100.593C319.308 97.6669 321.26 94.841 324.236 93.1634C325.748 92.185 327.463 91.3899 328.923 90.3475C329.788 89.7529 330.995 88.4409 329.823 87.6468L329.804 87.6376L329.801 87.6356ZM319.166 114.215C318.005 114.748 321.385 117.043 321.595 116.367C321.704 116.101 321.541 115.789 321.414 115.539C321.031 114.731 319.827 113.939 319.192 114.206L319.166 114.215ZM334.976 100.505C334.664 100.346 334.423 100.257 334.111 100.242C333.462 100.21 333.412 100.773 333.796 101.225C334.253 101.848 335.863 102.554 336.153 101.852C336.171 101.234 335.491 100.829 335.026 100.534L334.974 100.506L334.976 100.505ZM163.768 196.538C162.973 195.922 160.654 195.503 160.255 195.866C160.076 196.105 160.375 196.338 160.563 196.509C161.167 196.995 162.054 197.316 162.805 197.337C163.269 197.377 164.388 197.151 163.793 196.56L163.768 196.538ZM161.548 202.301C161.216 202.156 161.494 202.768 161.6 202.987C162.088 204.075 163.226 204.946 164.132 204.273C164.201 204.212 164.254 204.13 164.249 204.044C164.133 203.629 163.593 203.583 163.263 203.419C162.697 203.274 161.937 202.6 161.566 202.31L161.547 202.298L161.548 202.301ZM502.368 112.219C498.326 116.166 497.124 114.681 492.546 112.902C490.529 112.319 486.496 114.909 487.694 117.502C488.764 119.497 488.94 120.489 486.634 121.217C483.388 122.265 480.826 125.517 477.777 126.677C474.412 127.733 469.993 127.292 467.911 131.032C466.64 132.964 468.781 134.492 468.348 136.764C468.103 139.462 466.883 141.79 465.976 144.235C464.059 150.563 461.755 148.226 460.179 143.079C458.651 139.452 459.504 135.349 462.58 133.344C464.6 131.277 466.125 129.078 467.747 126.583C468.107 125.962 468.461 125.343 468.772 124.698C469.38 123.455 469.253 122.471 468.252 123.029C466.122 124.747 464.381 124.428 461.72 124.878C457.696 126.195 457.76 129.716 455.054 131.617C453.79 132.025 452.469 131.294 451.194 131.263C448.449 131.432 445.583 131.831 442.831 132.112C438.483 133.184 436.748 138.937 433.508 141.981C430.8 144.654 434.197 147.305 436.726 146.394C439.966 145.172 440.672 150.128 440.452 152.76C440.406 159.1 438.994 165.398 435.251 170.239C431.328 173.86 429.492 171.9 427.399 178.718C426.271 181.458 428.198 183.951 428.688 186.632C428.987 188.142 428.302 190.961 426.792 190.011C425.605 188.727 425.614 186.346 424.7 184.842C423.369 181.826 419.579 179.49 416.65 180.668C413.106 182.53 412.452 185.811 417.053 186.369C419.662 186.97 416.265 189.904 417.119 191.684C417.992 194.47 419.856 197.465 420.244 200.457C420.884 207.093 416.487 213.101 411.194 215.532C409.4 216.887 407.493 217.262 405.404 217.671C396.37 222.395 411.102 226.428 406.177 234.155C405.414 235.635 403.932 237.645 402.39 235.984C400.789 234.661 397.421 231.326 395.663 233.507C394.392 236.057 395.84 239.319 397.732 241.132C399.257 242.935 403.561 246.8 402.175 248.826C399.453 248.11 396.705 242.501 394.56 240.156C392.761 236.882 393.086 231.725 390.855 228.771C390.125 227.672 388.906 228.056 387.894 227.86C386.786 227.523 386.396 226.173 385.72 225.049C383.648 220.783 379.886 218.591 376.329 221.981C373.53 224.822 371.548 228.852 368.971 231.936C367.45 234.31 367.979 237.456 367.509 240.202C365.946 248.755 361.784 239.862 359.56 236.631C356.564 233.177 356.791 224.347 354.865 224.895C353.949 225.024 352.662 225.725 351.864 224.921C351.123 223.347 350.624 222.836 349.132 222.124C346.889 220.518 344.602 219.837 342.122 220.928C338.43 222.194 334.708 220.686 331.021 219.986C325.615 220.062 322.92 214.038 320.86 215.84C319.79 218.804 323.638 222.101 325.673 223.502C327.919 225.82 330.47 222.276 332.62 222.574C334.261 223.283 336.185 224.596 337.025 226.387C337.43 230.838 333.409 234.171 330.667 236.787C327.591 239.431 324.244 241.956 320.588 243.51C318.255 244.466 316.902 242.358 316.002 240.227C313.974 235.925 310.421 232.851 308.171 228.7C306.099 226.037 304.328 222.687 301.828 220.54C300.417 219.47 298.437 219.449 299.834 221.762C301.898 225.65 304.603 229.083 306.6 232.99C308.54 237.209 311.265 240.908 314.817 243.639C318.89 248.815 320.304 248.803 325.898 246.25C332.112 244.148 325.501 257.617 324.36 259.813C321.794 263.628 319.23 267.475 317.53 271.89C313.84 281.454 326.04 286.593 315.915 295.848C313.639 298.206 314.985 301.716 315.119 304.684C314.869 307.003 313.032 308.569 312.538 310.821C311.977 313.899 311.137 317.186 309.388 319.801C307.212 324.248 299.954 328.48 295.732 326.226C293.859 324.646 293.24 321.925 291.844 319.866C289.687 317.021 287.843 314.023 286.901 310.444C285.839 306.776 282.994 304.15 282.022 300.489C281.111 297.247 282.202 293.664 282.021 290.42C281.371 285.212 278.949 280.146 275.597 276.349C273.185 273.756 274.591 269.236 272.198 266.785C261.692 261.172 262.068 265.781 252.531 267.759C244.856 270.212 238.779 261.721 234.917 255.417C234.116 253.295 234.632 250.96 234.194 248.711C233.703 246.235 232.617 244.045 233.139 241.601C233.951 238.346 235.087 235.019 236.618 232.163C238.432 229.665 239.983 227.087 240.316 223.797C241.166 220.81 242.72 217.395 245.253 215.847C246.664 215.326 248.252 215.579 249.655 214.795C251.851 213.759 253.794 211.952 256.151 211.226C258.794 210.456 261.799 209.474 264.52 209.311C267.79 209.516 265.818 214.256 267.941 215.854C269.955 217.276 272.646 217.567 274.83 218.718C278.442 220.55 279.733 220.321 281.859 216.803C283.432 215.256 285.746 216.322 287.599 216.766C291.276 217.756 295.466 217.136 298.938 215.796C301.579 214.244 302.1 209.007 300.976 206.155C300.376 204.986 298.915 205.377 297.882 205.506C293.798 206.467 288.51 206.337 287.524 200.635C287.87 197.771 291.283 196.933 293.03 195.203C294.917 193.926 297.253 193.296 299.524 193.898C302.098 194.901 308.465 194.214 305.624 189.927C303.321 187.123 298.578 186.577 301.143 181.95C301.258 181.446 301.261 180.838 300.715 180.709C299.581 180.58 297.918 181.564 297.482 182.824C297.181 183.718 297.612 184.711 297.305 185.572C296.988 186.473 295.733 186.68 295.019 186.381C294.238 185.845 293.941 184.554 293.506 183.771C291.294 181.215 289.429 186.319 289.054 188.282C287.622 191.231 290.031 196.173 287.872 197.104C285.598 197.929 280.86 196.925 282.376 201.297C282.73 202.667 283.692 204.591 283.05 205.878C280.946 208.256 277.326 197.043 275.586 195.786C273.198 193.832 270.311 191.65 267.781 190.054C265.313 189.643 267.217 193.303 268.186 194.216C270.003 196.697 273.358 197.652 274.913 200.205C275.191 201.678 273.965 202.988 273.646 204.425C273.157 205.853 272.736 208.01 271.043 207.987C268.287 207.1 274.343 204.892 271.739 201.805C270.189 199.597 267.614 198.747 265.744 196.897C263.818 194.655 261.396 192.667 258.755 194.667C254.726 196.345 252.593 200.789 251.125 204.982C250.666 207.022 250.568 209.266 249.089 210.727C246.943 213.226 241.067 214.342 239.108 211.508C238.516 209.122 238.409 206.344 238.032 203.836C237.875 201.918 237.195 200.47 237.936 199.147C240.292 196.077 248.748 199.959 247.426 193.471C245.991 186.219 236.879 188.503 246.918 182.538C249.704 179.959 251.742 176.327 253.417 172.754C254.248 171.292 256.613 170.779 257.12 169.212C257.767 166.59 254.636 162.436 256.958 160.304C260.827 159.496 254.34 172.733 267.789 167.726C273.611 165.614 273.167 165.354 274.342 159.292C275.595 157.997 278.455 158.116 276.839 155.312C276.586 154.718 276.118 154.096 276.411 153.487C278.068 151.838 281.547 152.312 283.252 150.579C283.261 149.361 280.114 150.541 279.284 150.5C271.69 152.757 270.909 145.291 274.798 140.079C275.631 138.634 274.747 136.688 273.133 136.696C270.476 136.53 270.944 140.072 270.211 141.971C269.52 143.833 267.961 145.359 267.528 147.439C267.084 149.256 268.244 150.807 268.728 152.448C269.062 154.058 268.126 155.502 267.448 157.189C266.746 158.684 266.36 160.605 265.659 161.988C262.389 167.227 260.298 155.841 257.53 155.746C256.055 157.046 253.853 160.999 251.712 158.238C248.038 151.418 252.874 148.176 256.216 143.438C260.487 136.021 260.992 127.01 268.591 121.954C269.892 121.159 273.821 115.672 273.871 119.539C274.706 119.584 277.424 117.529 278.823 118.335C279.612 118.55 279.766 119.228 279.703 119.986C279.636 121.698 282.277 120.787 283.124 121.157C283.975 121.487 284.32 122.704 285.394 122.845C288.758 123.589 301.866 126.257 293.862 131.095C290.845 132.642 283.57 127.642 287.674 133.039C288.824 135.075 289.967 140.462 292.896 138.806C293.683 137.168 294.509 135.584 295.969 134.344C297.562 131.916 301.781 130.96 300.906 127.265C300.83 126.461 300.753 125.675 301.218 125.131C302.217 124.848 302.496 127.21 303.73 126.954C309.412 125.279 308.043 121.745 316.768 121.024C319.334 120.016 323.133 121.005 323.314 117.091C325.969 113.5 331.579 119.417 334.225 119.684C334.826 115.002 327.981 113.458 332.644 104.704C333.491 103.134 336.295 101.758 336.995 104.206C337.249 106.852 337.119 109.566 337.802 112.24C338.319 116.26 342.647 121.039 338.141 123.806C335.724 125.919 339.612 125.452 340.557 124.41C343.171 122.617 342.005 116.382 346.133 118.763C347.772 119.268 345.31 117.303 344.785 116.89C343.01 115.66 341.055 114.374 340.876 111.855C340.6 109.603 340.254 107.086 340.761 104.916C341.166 104.162 341.503 105.792 341.823 106.046C343.625 108.678 343.416 107.45 344.764 105.835C345.914 105.075 348.007 105.314 349.4 105.395C354.56 105.315 344.555 100.088 349.95 98.5788C352.091 97.8157 356.315 98.3149 356.579 95.0587C356.64 93.6962 356.091 92.1011 356.941 90.9368C361.001 87.3502 367.801 87.7442 372.487 84.9525C374.566 83.9464 375.206 81.2368 377.329 80.5725C380.038 79.4736 380.849 84.3078 383.388 83.3235C384.36 82.8642 385.304 82.1712 386.529 82.3012C388.357 82.4483 391.111 83.3568 391.771 85.6082C392.519 89.9495 384.492 92.5678 384.31 96.7105C386.113 96.9503 388.145 95.2132 390.031 95.0343C393.01 94.5003 396.07 94.6609 398.959 94.5829C400.561 94.9011 401.876 96.7338 403.833 96.1042C406.788 95.7421 409.194 93.3187 412.185 93.4225C416.995 93.1986 414.939 101.002 418.768 101.544C420.233 101.452 421.614 100.46 423.095 100.287C425.286 99.9612 428.415 100.794 430.18 99.1669C432.136 95.3716 432.341 94.6411 437.03 95.5797C439.759 96.0979 442.322 96.5643 444.759 98.0258C446.505 99.1635 448.265 100.467 450.245 100.238C452.333 100.065 454.545 99.5625 456.618 100.314C463.722 105.417 460.528 104.08 469.168 103.98C478.589 106.439 470.238 100.837 480.789 102.338C486.136 102.894 490.823 106.405 495.796 108.418C498.371 109.515 503.635 110.66 502.377 112.21L502.362 112.222L502.368 112.219ZM323.611 181.458C323.895 181.358 324.249 181.3 324.092 180.932C323.817 180.427 323.331 179.902 322.578 179.329C321.757 178.726 320.898 178.125 319.883 178.142C317.968 178.123 315.962 179.265 314.701 180.838C311.57 184.594 312.166 185.451 315.061 189.228C315.934 190.295 317.693 191.054 318.017 192.046C318.246 192.696 318.135 193.408 318.041 194.081C317.784 195.86 317.216 198.458 318.506 199.89C319.694 201.302 324.521 201.58 325.8 200.577C327.61 199.049 325.086 196.236 324.855 194.355C324.63 193.112 325.051 192.166 324.972 191.029C324.904 190.314 324.121 190.256 323.644 189.807C323.302 189.515 323.061 189.207 322.789 188.811C322.274 188.023 321.792 187.317 321.12 186.606C320.659 186.118 320.077 185.533 319.852 185C319.624 184.503 319.425 183.915 319.524 183.4C319.922 182.001 322.381 181.841 323.584 181.467L323.61 181.463L323.611 181.458ZM166.287 141.521C166.323 142.821 168.009 142.905 168.795 142.371C169.746 141.799 169.403 140.332 168.499 139.915C167.615 139.424 166.339 140.386 166.289 141.477L166.289 141.521L166.287 141.521ZM354.602 66.7326C354.182 66.9738 353.719 67.1784 353.56 67.6711C353.445 68.1164 353.988 68.6017 354.845 68.7247C355.692 68.8469 356.473 68.6207 357.229 68.1532C358.181 67.5022 359.055 66.8943 359.633 66.0427C360.296 64.2887 355.127 66.4201 354.644 66.7118L354.602 66.7326Z" fill="#9D5CC8" fill-opacity="0.25"/>
<g opacity="0.3">
<circle cx="94.7584" cy="193.209" r="1" fill="#E3A126"/>
<circle cx="68.0001" cy="191.406" r="1" fill="#E3A126"/>
<circle cx="81.0001" cy="173.406" r="1" fill="#E3A126"/>
<circle cx="45.0001" cy="190.406" r="1" fill="#E3A126"/>
<circle cx="52.0001" cy="173.406" r="1" fill="#E3A126"/>
<circle cx="171" cy="151.406" r="1" fill="#E3A126"/>
<circle cx="195" cy="143.406" r="1" fill="#E3A126"/>
<circle cx="214" cy="148.406" r="1" fill="#E3A126"/>
<circle cx="238" cy="162.406" r="1" fill="#E3A126"/>
<circle cx="245" cy="171.406" r="1" fill="#E3A126"/>
<circle cx="243" cy="179.406" r="1" fill="#E3A126"/>
<circle cx="246" cy="178.406" r="1" fill="#E3A126"/>
<circle cx="234" cy="171.406" r="1" fill="#E3A126"/>
<circle cx="233" cy="177.406" r="1" fill="#E3A126"/>
<circle cx="244" cy="209.406" r="1" fill="#E3A126"/>
<circle cx="239" cy="200.406" r="1" fill="#E3A126"/>
<circle cx="247" cy="199.406" r="1" fill="#E3A126"/>
<circle cx="250" cy="189.406" r="1" fill="#E3A126"/>
<circle cx="251" cy="182.406" r="1" fill="#E3A126"/>
<circle cx="259" cy="173.406" r="1" fill="#E3A126"/>
<circle cx="258" cy="180.406" r="1" fill="#E3A126"/>
<circle cx="264" cy="186.406" r="1" fill="#E3A126"/>
<circle cx="258" cy="192.406" r="1" fill="#E3A126"/>
<circle cx="273" cy="200.406" r="1" fill="#E3A126"/>
<circle cx="263" cy="202.406" r="1" fill="#E3A126"/>
<circle cx="282" cy="199.406" r="1" fill="#E3A126"/>
<circle cx="283" cy="189.406" r="1" fill="#E3A126"/>
<circle cx="277" cy="181.406" r="1" fill="#E3A126"/>
<circle cx="289" cy="174.406" r="1" fill="#E3A126"/>
<circle cx="297" cy="184.406" r="1" fill="#E3A126"/>
<circle cx="301" cy="196.406" r="1" fill="#E3A126"/>
<circle cx="281" cy="180.406" r="1" fill="#E3A126"/>
<circle cx="270" cy="172.406" r="1" fill="#E3A126"/>
<circle cx="269" cy="177.406" r="1" fill="#E3A126"/>
<circle cx="286" cy="144.406" r="1" fill="#E3A126"/>
<circle cx="280" cy="128.406" r="1" fill="#E3A126"/>
<circle cx="267" cy="136.406" r="1" fill="#E3A126"/>
<circle cx="261" cy="154.406" r="1" fill="#E3A126"/>
<circle cx="267" cy="154.406" r="1" fill="#E3A126"/>
<circle cx="260" cy="145.406" r="1" fill="#E3A126"/>
<circle cx="255" cy="152.406" r="1" fill="#E3A126"/>
<circle cx="310" cy="136.406" r="1" fill="#E3A126"/>
<circle cx="326" cy="164.406" r="1" fill="#E3A126"/>
<circle cx="302" cy="153.406" r="1" fill="#E3A126"/>
<circle cx="310" cy="158.406" r="1" fill="#E3A126"/>
<circle cx="361" cy="117.406" r="1" fill="#E3A126"/>
<circle cx="370" cy="221.406" r="1" fill="#E3A126"/>
<circle cx="357" cy="221.406" r="1" fill="#E3A126"/>
<circle cx="351" cy="224.406" r="1" fill="#E3A126"/>
<circle cx="358" cy="232.406" r="1" fill="#E3A126"/>
<circle cx="365" cy="243.406" r="1" fill="#E3A126"/>
<circle cx="319" cy="247.406" r="1" fill="#E3A126"/>
<circle cx="332" cy="235.406" r="1" fill="#E3A126"/>
<circle cx="318" cy="272.406" r="1" fill="#E3A126"/>
<circle cx="307" cy="308.406" r="1" fill="#E3A126"/>
<circle cx="295" cy="320.406" r="1" fill="#E3A126"/>
<circle cx="294" cy="315.406" r="1" fill="#E3A126"/>
<circle cx="309" cy="268.406" r="1" fill="#E3A126"/>
<circle cx="1" cy="1" r="1" transform="matrix(-1 0 0 1 295 230.406)" fill="#E3A126"/>
<circle cx="1" cy="1" r="1" transform="matrix(-1 0 0 1 253 222.406)" fill="#E3A126"/>
<circle cx="1" cy="1" r="1" transform="matrix(-1 0 0 1 245 235.406)" fill="#E3A126"/>
<circle cx="1" cy="1" r="1" transform="matrix(-1 0 0 1 247 245.406)" fill="#E3A126"/>
<circle cx="1" cy="1" r="1" transform="matrix(-1 0 0 1 265 240.406)" fill="#E3A126"/>
<circle cx="1" cy="1" r="1" transform="matrix(-1 0 0 1 260 262.406)" fill="#E3A126"/>
<circle cx="1" cy="1" r="1" transform="matrix(-1 0 0 1 291 271.406)" fill="#E3A126"/>
<circle cx="1" cy="1" r="1" transform="matrix(-1 0 0 1 317 220.406)" fill="#E3A126"/>
<circle cx="1" cy="1" r="1" transform="matrix(-1 0 0 1 315 199.406)" fill="#E3A126"/>
<circle cx="1" cy="1" r="1" transform="matrix(-1 0 0 1 333 195.406)" fill="#E3A126"/>
<circle cx="1" cy="1" r="1" transform="matrix(-1 0 0 1 312 177.406)" fill="#E3A126"/>
<circle cx="1" cy="1" r="1" transform="matrix(-1 0 0 1 361 206.406)" fill="#E3A126"/>
<circle cx="1" cy="1" r="1" transform="matrix(-1 0 0 1 369 193.406)" fill="#E3A126"/>
<circle cx="1" cy="1" r="1" transform="matrix(-1 0 0 1 334 209.406)" fill="#E3A126"/>
<circle cx="86.7584" cy="208.209" r="1" fill="#E3A126"/>
<circle cx="86.7584" cy="205.209" r="1" fill="#E3A126"/>
<circle cx="86.0001" cy="215.406" r="1" fill="#E3A126"/>
<circle cx="96.7584" cy="211.209" r="1" fill="#E3A126"/>
<circle cx="98.7584" cy="213.209" r="1" fill="#E3A126"/>
<circle cx="92.7584" cy="216.209" r="1" fill="#E3A126"/>
<circle cx="93.7584" cy="237.209" r="1" fill="#E3A126"/>
<circle cx="96.7584" cy="240.209" r="1" fill="#E3A126"/>
<circle cx="101.758" cy="237.209" r="1" fill="#E3A126"/>
<circle cx="105.758" cy="240.209" r="1" fill="#E3A126"/>
<circle cx="104.758" cy="245.209" r="1" fill="#E3A126"/>
<circle cx="107.758" cy="250.209" r="1" fill="#E3A126"/>
<circle cx="111.758" cy="254.209" r="1" fill="#E3A126"/>
<circle cx="114.758" cy="258.209" r="1" fill="#E3A126"/>
<circle cx="118.758" cy="258.209" r="1" fill="#E3A126"/>
<circle cx="1" cy="1" r="1" transform="matrix(1 0 0 -1 125.758 242.209)" fill="#E3A126"/>
<circle cx="1" cy="1" r="1" transform="matrix(1 0 0 -1 121 244.406)" fill="#E3A126"/>
<circle cx="1" cy="1" r="1" transform="matrix(1 0 0 -1 130.758 235.209)" fill="#E3A126"/>
<circle cx="1" cy="1" r="1" transform="matrix(1 0 0 -1 125 233.406)" fill="#E3A126"/>
<circle cx="1" cy="1" r="1" transform="matrix(1 0 0 -1 118.758 239.209)" fill="#E3A126"/>
<circle cx="1" cy="1" r="1" transform="matrix(1 0 0 -1 116.758 249.209)" fill="#E3A126"/>
<circle cx="1" cy="1" r="1" transform="matrix(1 0 0 -1 112.758 224.209)" fill="#E3A126"/>
<circle cx="1" cy="1" r="1" transform="matrix(1 0 0 -1 116.758 210.209)" fill="#E3A126"/>
<circle cx="1" cy="1" r="1" transform="matrix(1 0 0 -1 112.758 199.209)" fill="#E3A126"/>
<circle cx="1" cy="1" r="1" transform="matrix(1 0 0 -1 121.758 189.209)" fill="#E3A126"/>
<circle cx="1" cy="1" r="1" transform="matrix(1 0 0 -1 140.758 197.209)" fill="#E3A126"/>
<circle cx="1" cy="1" r="1" transform="matrix(1 0 0 -1 101.758 206.209)" fill="#E3A126"/>
<circle cx="1" cy="1" r="1" transform="matrix(1 0 0 -1 108.758 176.209)" fill="#E3A126"/>
<circle cx="1" cy="1" r="1" transform="matrix(1 0 0 -1 141.758 186.209)" fill="#E3A126"/>
<circle cx="1" cy="1" r="1" transform="matrix(1 0 0 -1 153 213.406)" fill="#E3A126"/>
<circle cx="1" cy="1" r="1" transform="matrix(1 0 0 -1 147.758 215.209)" fill="#E3A126"/>
<circle cx="1" cy="1" r="1" transform="matrix(1 0 0 -1 148.758 218.209)" fill="#E3A126"/>
<circle cx="1" cy="1" r="1" transform="matrix(1 0 0 -1 146.758 221.209)" fill="#E3A126"/>
<circle cx="1" cy="1" r="1" transform="matrix(1 0 0 -1 141.758 220.209)" fill="#E3A126"/>
<circle cx="1" cy="1" r="1" transform="matrix(1 0 0 -1 137.758 269.209)" fill="#E3A126"/>
<circle cx="1" cy="1" r="1" transform="matrix(1 0 0 -1 142.758 274.209)" fill="#E3A126"/>
<circle cx="1" cy="1" r="1" transform="matrix(1 0 0 -1 165 273.406)" fill="#E3A126"/>
<circle cx="1" cy="1" r="1" transform="matrix(1 0 0 -1 171 275.406)" fill="#E3A126"/>
<circle cx="1" cy="1" r="1" transform="matrix(1 0 0 -1 173 279.406)" fill="#E3A126"/>
<circle cx="1" cy="1" r="1" transform="matrix(1 0 0 -1 209 302.406)" fill="#E3A126"/>
<circle cx="1" cy="1" r="1" transform="matrix(1 0 0 -1 201 313.406)" fill="#E3A126"/>
<circle cx="1" cy="1" r="1" transform="matrix(1 0 0 -1 198 325.406)" fill="#E3A126"/>
<circle cx="1" cy="1" r="1" transform="matrix(1 0 0 -1 204 318.406)" fill="#E3A126"/>
<circle cx="1" cy="1" r="1" transform="matrix(1 0 0 -1 184 294.406)" fill="#E3A126"/>
<circle cx="1" cy="1" r="1" transform="matrix(1 0 0 -1 162 302.406)" fill="#E3A126"/>
<circle cx="1" cy="1" r="1" transform="matrix(1 0 0 -1 174 328.406)" fill="#E3A126"/>
<circle cx="1" cy="1" r="1" transform="matrix(1 0 0 -1 172 346.406)" fill="#E3A126"/>
<circle cx="1" cy="1" r="1" transform="matrix(1 0 0 -1 175 355.406)" fill="#E3A126"/>
<circle cx="1" cy="1" r="1" transform="matrix(1 0 0 -1 190 344.406)" fill="#E3A126"/>
<circle cx="1" cy="1" r="1" transform="matrix(1 0 0 -1 177 377.406)" fill="#E3A126"/>
</g>
</g>
<defs>
<filter id="filter0_d_22_82911" x="29.1596" y="61.5296" width="344.875" height="345.319" filterUnits="userSpaceOnUse" color-interpolation-filters="sRGB">
<feFlood flood-opacity="0" result="BackgroundImageFix"/>
<feColorMatrix in="SourceAlpha" type="matrix" values="0 0 0 0 0 0 0 0 0 0 0 0 0 0 0 0 0 0 127 0" result="hardAlpha"/>
<feOffset dy="4.36502"/>
<feGaussianBlur stdDeviation="2.18251"/>
<feComposite in2="hardAlpha" operator="out"/>
<feColorMatrix type="matrix" values="0 0 0 0 0 0 0 0 0 0 0 0 0 0 0 0 0 0 0.25 0"/>
<feBlend mode="normal" in2="BackgroundImageFix" result="effect1_dropShadow_22_82911"/>
<feBlend mode="normal" in="SourceGraphic" in2="effect1_dropShadow_22_82911" result="shape"/>
</filter>
</defs>
</svg>
