<svg width="30" height="30" viewBox="0 0 30 30" fill="none" xmlns="http://www.w3.org/2000/svg">
<path d="M27.5 26.5624H26.25V12.4749C26.25 11.6999 25.9 10.9749 25.2875 10.4999L23.75 9.2999L23.725 6.2374C23.725 5.5499 23.1625 4.9999 22.475 4.9999H18.2125L16.5375 3.6999C15.6375 2.9874 14.3625 2.9874 13.4625 3.6999L4.7125 10.4999C4.1 10.9749 3.75 11.6999 3.75 12.4624L3.6875 26.5624H2.5C1.9875 26.5624 1.5625 26.9874 1.5625 27.4999C1.5625 28.0124 1.9875 28.4374 2.5 28.4374H27.5C28.0125 28.4374 28.4375 28.0124 28.4375 27.4999C28.4375 26.9874 28.0125 26.5624 27.5 26.5624ZM8.125 15.9374V14.0624C8.125 13.3749 8.6875 12.8124 9.375 12.8124H11.875C12.5625 12.8124 13.125 13.3749 13.125 14.0624V15.9374C13.125 16.6249 12.5625 17.1874 11.875 17.1874H9.375C8.6875 17.1874 8.125 16.6249 8.125 15.9374ZM18.125 26.5624H11.875V23.1249C11.875 22.0874 12.7125 21.2499 13.75 21.2499H16.25C17.2875 21.2499 18.125 22.0874 18.125 23.1249V26.5624ZM21.875 15.9374C21.875 16.6249 21.3125 17.1874 20.625 17.1874H18.125C17.4375 17.1874 16.875 16.6249 16.875 15.9374V14.0624C16.875 13.3749 17.4375 12.8124 18.125 12.8124H20.625C21.3125 12.8124 21.875 13.3749 21.875 14.0624V15.9374Z" fill="white" fill-opacity="0.9"/>
</svg>
