<svg width="36" height="30" viewBox="0 0 36 30" fill="none" xmlns="http://www.w3.org/2000/svg">
<path d="M19.5255 0.0152055L22.1662 0.0112839C22.1662 0.0112839 25.2775 0.0104853 27.2711 0.0102381C28.5683 0.0100772 29.2956 0.000487759 30.5927 0.0100008C31.3715 0.0157121 32.5791 0.0119539 32.5791 0.0119539L36.0002 5.83796L35.0067 7.61007C35.0067 7.61007 33.6592 9.97114 32.9744 11.1458C32.5082 11.9495 32.0336 12.918 31.4726 13.6639C31.3342 13.8485 30.6235 14.2219 30.3868 14.2338C28.008 14.3511 23.2132 14.2875 23.2132 14.2875L23.2157 17.7505C23.2167 18.0509 23.1778 19.776 23.1778 19.776C23.1778 19.776 22.2292 21.5775 21.8148 22.3241C21.7143 22.1135 21.4828 21.7444 21.3575 21.5291L20.3828 19.8632L19.1426 17.743C18.967 17.4449 18.5827 16.7849 18.5827 16.7849L19.968 14.3375L21.6244 11.4536L22.7028 9.63482L26.2135 9.63357C26.2135 9.63357 27.7931 9.67774 28.2869 9.56844C28.7643 9.45968 29.2025 9.23026 29.5554 8.90431C30.1167 8.38503 30.4367 7.67229 30.4434 6.92582C30.4448 6.19487 30.1383 5.49403 29.5929 4.98121C29.2648 4.67108 28.8532 4.45359 28.404 4.35273C27.8349 4.22166 26.7394 4.26807 26.1059 4.26807L22.2561 4.27804C22.2561 4.27804 21.2626 6.02243 20.776 6.87158L16.8622 13.7505L14.1733 9.16486L19.5255 0.0152055Z" fill="#E3A126"/>
<path d="M9.07279 0.0187556C11.3455 0.00675725 13.7317 -0.0160897 16.0019 0.0176747C15.2234 1.34226 13.4929 4.26797 13.4929 4.26797L7.8585 4.27466L16.568 19.242L19.073 23.5611L20.0919 25.3602C20.0919 25.3602 19.5575 26.3562 19.2779 26.8345C18.6698 27.8754 17.4955 30 17.4955 30C17.4955 30 9.50041 16.1843 5.44895 9.33412C5.02808 8.57139 4.54938 7.83642 4.13546 7.07389L3.6386 6.23563C3.55118 6.10673 3.42348 5.86345 3.34278 5.72075C3.17448 5.42542 3.00329 5.13165 2.82919 4.83943C2.78516 4.78028 2.67023 4.57492 2.62638 4.50151C2.43402 4.17715 2.2477 3.84955 2.06755 3.51883C1.93741 3.32777 1.6372 2.77797 1.6372 2.77797C1.6372 2.77797 0.826334 1.40668 0.629616 1.06735C0.528108 0.942766 0.173287 0.280794 0 0.0341344C0 0.0341344 0.689188 0.0316972 1.13079 0.0302459C1.5508 0.0288655 2.20629 0.0268669 2.20629 0.0268669L9.07279 0.0187556Z" fill="#E3A126"/>
</svg>
