<svg width="30" height="30" viewBox="0 0 30 30" fill="none" xmlns="http://www.w3.org/2000/svg">
<path d="M20.8125 4.82495H12.3875V8.59995C12.3875 9.08745 11.9875 9.47495 11.5125 9.47495C11.0375 9.47495 10.6375 9.08745 10.6375 8.59995V4.82495H9.18752C4.25003 4.82495 2.62503 6.29995 2.51253 10.9125C2.50003 11.1375 2.60003 11.375 2.76253 11.5375C2.92503 11.7125 3.13753 11.8 3.38753 11.8C5.13753 11.8 6.57503 13.25 6.57503 15C6.57503 16.75 5.13753 18.2 3.38753 18.2C3.15003 18.2 2.92503 18.2875 2.76253 18.4625C2.60003 18.625 2.50003 18.8625 2.51253 19.0875C2.62503 23.7 4.25003 25.1749 9.18752 25.1749H10.6375V21.4C10.6375 20.9125 11.0375 20.525 11.5125 20.525C11.9875 20.525 12.3875 20.9125 12.3875 21.4V25.1749H20.8125C25.9375 25.1749 27.5 23.6125 27.5 18.4875V11.5125C27.5 6.38745 25.9375 4.82495 20.8125 4.82495ZM23.0875 14.875L21.925 16C21.875 16.0375 21.8625 16.1125 21.875 16.175L22.15 17.7625C22.2 18.05 22.0875 18.35 21.8375 18.525C21.6 18.7 21.2875 18.725 21.025 18.5875L19.5875 17.8375C19.5375 17.8125 19.4625 17.8125 19.4125 17.8375L17.975 18.5875C17.8625 18.65 17.7375 18.675 17.6125 18.675C17.45 18.675 17.3 18.625 17.1625 18.525C16.925 18.35 16.8 18.0625 16.85 17.7625L17.125 16.175C17.1375 16.1125 17.1125 16.05 17.075 16L15.9125 14.875C15.7 14.675 15.625 14.3625 15.7125 14.0875C15.8 13.8 16.0375 13.6 16.3375 13.5625L17.9375 13.325C18 13.3125 18.05 13.275 18.0875 13.225L18.8 11.775C18.9375 11.5125 19.2 11.35 19.5 11.35C19.8 11.35 20.0625 11.5125 20.1875 11.775L20.9 13.225C20.925 13.2875 20.975 13.325 21.0375 13.325L22.6375 13.5625C22.9375 13.6 23.175 13.8125 23.2625 14.0875C23.375 14.3625 23.3 14.6625 23.0875 14.875Z" fill="white" fill-opacity="0.9"/>
</svg>
