<svg width="533" height="371" viewBox="0 0 533 371" fill="none" xmlns="http://www.w3.org/2000/svg">
<path d="M53.703 131.925C54.128 131.577 58.7402 128.316 58.4814 129.269C58.2661 129.744 57.5021 130.652 57.5275 130.778C57.8939 130.735 58.4405 130.359 59.16 129.777C62.054 126.842 62.2926 127.119 66.0455 128.192C67.3711 128.299 68.5035 127.477 69.837 127.434C71.5757 127.128 73.2738 127.494 75.1322 127.671C76.5913 127.859 78.2987 127.721 79.6007 128.556C80.2469 129.006 80.5036 129.912 81.239 130.205C82.8145 130.664 85.0866 129.692 86.9001 129.843C88.181 129.753 89.3996 130.944 90.5773 130.86C90.8805 130.422 90.578 129.689 90.5494 128.583C90.3142 126.472 92.1313 125.763 93.8355 126.14C96.3388 126.57 99.1977 127.566 101.513 126.139C102.5 125.62 103.385 124.611 104.53 124.583C105.336 124.639 106.043 125.347 106.742 125.715C108.242 125.832 108.206 122.686 108.682 121.494C109.006 118.205 104.827 119.228 105.145 113.927C105.254 111.214 104.474 108.272 105.033 105.615C105.422 102.992 111.249 100.751 108.706 105.327C107.013 107.956 106.003 109.421 108.132 112.282C109.792 114.976 111.115 117.954 113.353 120.092C114.822 121.502 115.606 117.449 116.838 120.895C117.424 122.638 118.958 124.359 119.95 122.077C120.868 120.426 120.086 117.859 121.183 116.335C121.977 115.413 123.555 115.773 124.399 116.499C125.257 117.266 125.452 118.414 125.647 119.587C126.2 123.292 125.127 125.134 121.951 126.137C119.321 127.777 119.685 128.744 116.101 129.141C113.817 129.642 117.184 130.16 117.863 130.351C120.51 130.958 119.318 132.838 117.744 133.895C116.666 134.664 115.169 135.005 114.527 135.333C113.729 135.679 114.088 136.243 114.126 136.92C114.06 138.408 112.966 139.314 112.314 140.982C111.776 142.361 111.273 144.247 111.408 145.546C111.59 147.545 113.315 148.643 114.68 149.711C116.347 151.089 117.971 151.784 119.949 151.98C122.79 152.522 125.546 153.842 128.32 154.505C130.646 155.24 130.734 158.265 132.655 159.672C136.593 162.744 136.27 159.389 135.61 155.933C135.281 153.963 136.334 152.319 136.798 150.528C137.526 147.468 135.196 144.536 134.726 141.668C134.628 139.69 132.995 136.842 134.486 135.391C137.338 133.506 144.117 135.117 145.515 138.652C146.319 141.1 148.547 142.768 150.624 141.094C151.349 140.497 151.76 139.211 152.348 138.634C155.538 136.691 157.523 146.18 159.904 147.46C161.068 148.296 163.357 148.801 162.844 150.763C162.857 151.04 162.567 151.464 162.846 151.638C163.866 151.801 165.144 151.356 166.078 152.054C167.051 152.763 167.144 154.251 166.545 155.296C164.47 158.732 160.444 160.375 156.814 161.2C153.307 162.193 150.973 165.291 149.306 168.701C148.232 171.121 150.459 168.119 151.465 167.089C152.568 165.747 156.112 162.77 156.073 166.264C155.715 168.748 158.558 171.203 160.652 170.794C161.309 170.795 162.708 169.199 162.801 170.029C162.731 171.617 161.357 173.132 160.151 174.073C158.777 175.221 155.917 177.439 157.873 173.977C159.084 171.254 154.813 174.303 154.198 174.919C151.034 177.092 151.394 179.023 150.143 182.315C149.305 183.747 147.868 184.808 147.052 186.313C146.273 187.556 145.87 187.874 145.58 188.636C145.072 189.876 146.009 192.925 144.289 190.206C143.883 190.164 144.157 191.606 144.176 192.353C144.431 194.581 145.371 196.975 143.987 198.913C142.325 201.531 139.323 203.944 139.679 207.505C139.819 209.441 140.96 211.379 141.514 213.257C142.021 214.822 141.722 216.257 140.307 214.944C139.508 214.11 139.044 212.875 138.451 211.866C136.81 208.345 132.499 208.933 129.884 209.816C128.639 210.492 127.938 211.838 126.314 211.535C122.449 210.984 117.888 214.24 118.635 218.935C118.787 222.047 118.5 225.801 121.018 228.099C122.776 230.139 125.742 231.028 127.789 229.416C129.132 228.292 129.567 226.195 130.991 225.161C132.56 223.895 134.13 225.206 133.706 227.143C133.667 228.983 132.154 231.471 133.794 232.778C135.886 233.696 139.164 232.4 140.36 235.294C140.995 236.833 140.727 238.986 141.684 240.488C142.853 242.67 145.31 242.583 147.307 242.485C148.367 242.465 149.671 242.549 150.587 242.132C151.654 241.586 152.084 240.154 152.862 239.219C154.602 236.963 157.375 236.136 160.012 236.098C163.729 236.422 167.909 235.928 171.476 237.589C173.482 238.678 175.272 240.528 177.314 241.558C179.094 242.513 181.075 242.668 182.941 243.302C187.305 244.939 190.155 249.328 194.066 251.711C197.701 252.977 201.821 252.826 205.46 254.426C207.761 255.458 210.886 255.669 211.819 258.617C212.864 262.57 209.584 265.344 208.396 268.624C207.463 271.551 208.991 275.45 208.447 278.367C208.228 279.4 207.438 280.178 206.734 281.034C205.619 282.25 204.726 283.823 203.719 285.124C200.079 288.865 199.032 289.725 198.073 295.392C197.411 298.381 195.464 300.846 194.03 303.493C193.196 304.938 192.667 306.331 191.548 307.415C190.633 308.243 189.552 308.947 189.06 310.063C188.217 313.103 185.007 313.66 183.306 315.871C182.64 316.84 182.531 318.229 182.595 319.356C182.626 320.233 182.601 320.829 182.006 321.156C181.366 321.464 180.456 321.826 180.189 322.698C179.643 324.792 179.151 327.097 179.134 329.376C179.149 330.977 179.424 332.628 179.019 334.138C178.632 335.73 177.419 337.07 176.975 338.712C175.667 342.873 179.073 347.33 182.89 347.886C187.315 348.862 180.515 350.162 179.424 349.995C171.749 349.402 166.659 341.904 166.913 333.664C165.979 319.285 167.894 304.895 167.38 290.538C167.276 281.119 162.298 282.046 157.31 276.919C154.831 273.977 153.01 270.526 150.556 267.509C146.506 262.863 147.949 258.23 150.102 253.152C151.294 250.508 151.531 247.057 149.618 244.718C147.77 242.709 145.212 244.946 142.947 243.86C139.677 242.957 138.064 239.508 135.115 237.92C131.925 236.527 128.145 235.533 124.875 234.058C121.578 233.238 118.08 233.278 114.813 232.274C110.207 231.385 109.563 228.932 106.944 225.349C104.706 222.935 101.821 220.81 99.5743 218.337C97.9325 216.621 96.4182 214.249 94.5669 212.872C92.3509 211.666 94.6867 215.255 95.0899 215.923C95.4167 217.08 101.389 223.315 99.7237 223.459C98.1501 222.533 96.142 220.367 94.5338 219.036C93.7642 218.224 93.8192 217.576 93.041 216.271C91.8159 214.456 90.5516 212.51 89.0825 210.904C87.7218 209.43 85.8137 208.718 84.4813 207.52C82.5297 205.733 81.4912 203.048 79.94 200.879C76.8424 196.849 77.1204 191.497 76.8423 186.529C76.9919 184.339 74.7685 181.196 75.7521 179.711C76.1059 179.177 76.7217 178.8 76.2323 178.122C75.2098 176.894 73.472 176.248 72.066 175.558C67.8356 173.945 65.8634 169.175 62.0265 166.872C57.7799 164.903 55.1073 160.22 50.4623 159.169C48.5315 158.595 46.6069 158.528 44.7171 158.315C43.3202 158.137 41.7129 157.755 40.4248 158.028C38.4299 158.361 37.375 160.936 35.9681 162.069C34.035 163.628 34.3118 161.069 35.09 159.733C35.6634 158.709 37.0335 156.43 34.9289 158.248C33.0381 159.915 31.8968 163.001 30.8837 165.45C29.6196 168.09 27.7209 170.314 25.6758 172.241C24.6023 173.559 14.7695 180.044 20.3289 174.952C21.7206 173.79 23.2434 172.721 24.4029 171.253C25.1201 170.176 27.1907 167.767 25.6856 166.573C24.3995 166.092 22.9454 166.691 21.5945 166.343C17.4101 165.878 12.3375 161.791 17.2963 157.701C18.6529 156.724 20.8466 153.369 17.9734 153.351C16.6589 153.477 14.7867 154.428 13.4581 153.764C12.1636 152.834 13.2096 151.229 14.4862 150.82C15.6478 150.193 18.1648 149.901 17.763 148.474C16.8737 147.195 13.987 146.797 13.7185 144.796C13.3928 140.512 19.0564 136.089 22.2244 134.611C25.3944 133.103 28.6397 134.291 31.9956 134.376C35.0993 134.354 38.0487 133.823 41.0819 133.547C42.5784 133.391 44.4541 133.233 46.1881 133.332C48.7933 133.659 51.5832 133.714 53.6645 131.943L53.6959 131.922L53.703 131.925ZM140.36 70.3201C140.977 71.227 140.164 72.2751 139.156 73.4201C137.213 75.4659 134.489 76.6344 132.25 78.2056C131.426 78.7387 130.58 79.5538 131.04 80.6696C131.783 82.4972 134.442 84.5933 136.425 85.3564C137.984 85.9792 139.706 85.9812 141.342 85.8327C142.798 85.697 144.362 85.5811 145.912 85.5105C147.575 85.4494 149.241 85.3276 150.734 85.6406C152.935 86.1399 153.899 87.9007 155.326 90.1372C155.974 91.1956 156.615 92.2837 157.244 93.3571C157.887 94.4788 158.59 95.5721 158.991 96.7928C159.398 98.051 159.481 99.3294 159.734 100.618C160.051 102.13 160.365 103.828 161.524 104.675C162.406 105.267 163.499 104.98 164.462 105.301C165.796 105.64 166.778 107.381 166.294 108.772C165.903 109.987 164.953 110.909 164.436 112.141C164.105 112.886 163.911 113.716 163.9 114.573C163.916 118.349 166.721 122.092 168.777 125.074C169.894 126.557 170.925 127.856 171.972 129.272C173.425 131.325 175.514 132.579 177.878 132.818C181.003 133.2 182.085 132.094 182.452 128.789C182.695 127.009 182.956 124.893 183.102 122.967C183.232 121.007 183.403 118.989 184.696 117.774C186.194 116.284 188.449 115.525 189.924 114.081C190.696 113.313 191.108 112.326 191.629 111.317C192.335 109.888 193.289 108.549 194.554 107.673C195.897 106.725 197.3 106.085 198.689 105.167C200.296 104.15 201.796 102.873 203.272 101.665C205.802 99.6023 206.308 98.4945 205.281 95.0583C204.321 91.8115 204.643 88.3015 206.007 85.3334C206.623 83.9544 207.558 82.5801 207.624 81.0029C207.647 78.7182 206.404 76.5357 205.799 74.3746C205.402 73.1124 205.146 71.7473 205.39 70.4508C205.503 69.7414 205.754 69.0545 205.849 68.3551C206.171 66.0108 203.203 64.3557 203.89 61.2519C204.366 59.2811 205.955 57.8008 207.034 56.198C208.068 54.7174 209.017 53.2808 210.308 52.0355C211.056 51.2928 211.96 50.6539 212.326 50.149C213.386 48.6933 209.87 48.6666 209.178 48.7253C207.678 48.8148 206.457 49.4031 204.843 50.0986C203.309 50.7678 201.538 51.5135 200.044 52.1622C197.089 53.5625 197.465 51.7245 198.159 49.43C198.452 48.3905 198.729 47.6011 198.187 47.1517C197.318 46.5473 195.995 46.5548 194.938 46.3898C192.466 46.1381 190.082 45.8995 187.673 45.7945C184.452 45.6968 181.107 46.2402 178.05 47.2426C176.22 47.9637 175.142 49.4437 173.329 50.018C172.004 50.4512 170.537 50.3842 169.169 50.6796C167.934 50.9166 166.643 51.388 165.569 51.9082C165.044 52.1607 164.462 52.4745 164.075 52.8887C163.708 53.2638 163.853 53.6818 164.217 53.9874C164.894 54.6159 166.525 55.4419 166.964 55.9308C167.033 56.0021 167.112 56.1057 167.104 56.1982C167.098 56.2495 167.064 56.2932 167.001 56.3242C166.804 56.4285 166.292 56.3953 165.585 56.2929C165.102 56.2263 164.532 56.137 163.932 56.0666C159.25 55.4705 156.84 56.2575 152.647 58.1477C150.916 58.8491 149.04 59.5313 147.419 60.5524C145.934 61.4786 144.827 62.5592 143.619 63.6719C142.546 64.6753 141.434 65.6652 140.337 66.6385C139.774 67.1226 138.951 67.9127 138.821 68.5189C138.692 69.4734 139.92 69.6654 140.355 70.2993L140.369 70.3188L140.36 70.3201ZM88.6372 112.17C88.6333 112.986 88.7151 113.968 87.6749 113.871C86.9135 113.839 85.6842 113.549 84.7773 113.472C83.0324 113.199 80.7754 113.91 79.1284 113.32C78.6872 113.153 78.2868 112.882 77.8073 112.836C76.0853 112.76 74.0267 115.511 73.6748 117.045C73.2635 118.602 74.8589 119.673 74.8689 121.148C74.8642 121.625 74.9369 122.126 75.4407 122.232C76.1022 122.452 77.532 122.226 78.8696 122.051C79.8032 121.929 80.7686 121.846 81.7063 121.825C86.9275 121.798 82.3709 123.066 80.6671 123.474C79.3506 123.82 75.1826 124.699 76.9846 126.254C77.4722 126.601 78.2543 126.786 78.8778 126.939C79.7578 127.155 80.5805 127.394 81.4307 127.657C84.0954 128.63 86.0584 127.925 88.4052 126.45C90.0594 125.318 91.5851 123.833 93.6175 124.173C94.7296 124.317 96.0095 124.598 97.1048 124.238C97.5975 124.067 98.3136 123.81 98.3827 123.213C98.4162 122.814 98.1915 122.441 98.2943 122.113C98.5938 121.491 99.4773 120.817 99.0788 120.021C98.5577 119.218 97.6425 118.81 96.9042 118.251C95.9741 117.627 95.1526 116.931 94.4722 115.976C93.537 114.738 92.942 113.15 91.964 111.944C90.6892 110.348 88.4939 108.86 88.6369 112.139L88.6358 112.175L88.6372 112.17ZM65.1614 113.393C65.2562 114.056 65.4022 114.758 65.3634 115.456C65.3128 116.685 64.7072 117.913 64.5711 119.121C64.1912 121.541 66.4943 122.633 68.4373 122.549C70.7647 122.57 71.8657 120.26 72.7346 118.268C73.3553 116.821 74.4841 115.67 75.5725 114.421C76.3152 113.646 77.746 112.281 77.4144 111.324C76.8938 109.943 75.0736 110.124 73.9462 110.037C71.4689 110.101 68.8926 109.546 66.4918 110.528C65.2325 111.009 64.8805 111.832 65.1537 113.355L65.1593 113.393L65.1614 113.393ZM101.567 121.076C100.026 124.299 105.896 123.785 107.109 122.821C108.854 121.572 105.733 119.997 104.638 119.658C103.411 119.196 102.173 119.819 101.583 121.037L101.565 121.074L101.567 121.076ZM95.1616 110.113C94.5546 110.796 97.0002 112.203 97.52 112.475C98.552 113.041 99.5709 113.519 100.66 113.492C103.206 113.545 105.698 110.387 102.493 108.828C102.006 108.529 101.254 108.272 101.488 107.511C101.646 106.889 102.132 105.976 101.491 105.477C100.495 104.656 96.6596 105.526 95.9967 106.792C95.8936 107.06 96.0057 107.332 96.1553 107.564C96.4549 108.016 96.9805 108.574 97.065 108.965C97.2395 109.785 95.5862 109.763 95.1754 110.104L95.1637 110.113L95.1616 110.113ZM89.9685 107.512C88.8682 107.955 88.5089 108.714 89.8513 109.383C90.5085 109.734 91.7284 110.309 92.1957 109.707C92.3874 109.481 92.4556 109.154 92.4392 108.841C92.3839 107.527 90.995 107.069 90.0138 107.496L89.9685 107.512ZM69.1927 100.017C68.3098 101.131 67.3275 102.292 66.8157 103.64C66.2774 105.058 67.3208 105.41 68.627 104.735C69.8299 104.108 70.7289 102.855 71.6573 101.871C71.9897 101.528 72.2868 101.281 72.589 101.156C73.3627 100.863 74.1391 101.112 74.7451 100.306C75.2085 99.7363 75.5731 98.9553 75.6826 98.208C75.9545 96.0948 74.1666 96.0859 72.9333 96.7265C71.5977 97.4377 70.3423 98.685 69.226 99.9785L69.1909 100.02L69.1927 100.017ZM77.2705 100.507C76.486 100.654 75.7188 101.15 75.1274 101.806C74.5661 102.432 74.0832 103.161 73.9124 104.021C73.6332 105.301 74.5146 106.252 75.5797 106.067C76.8971 105.844 77.987 105.216 79.2539 104.974C80.0148 104.813 80.8642 104.868 81.0156 105.025C81.169 105.312 80.2937 105.882 80.0744 106.083C79.5918 106.452 78.8589 106.988 78.5324 107.386C77.6614 108.508 79.6142 108.227 80.1278 108.037C81.187 107.725 82.149 107.039 83.1563 106.308C84.1233 105.597 85.1599 104.96 86.214 104.469C87.5204 103.882 88.8996 103.347 89.6577 101.963C90.1746 101.215 90.2871 99.4716 89.5407 99.2501C89.0599 99.1665 88.6948 99.6687 88.2393 99.7543C87.2028 99.9853 86.2256 97.9286 85.1826 97.5067C84.4077 97.1093 83.8262 97.4111 83.8142 98.1436C83.7822 98.7855 84.1597 99.7453 84.404 100.422C84.5146 100.757 84.6426 101.105 84.5903 101.452C84.5342 101.816 84.2 102.09 83.6954 102.21C82.4178 102.496 81.1295 101.739 79.98 101.098C79.1296 100.615 78.2759 100.314 77.3104 100.498L77.2723 100.504L77.2705 100.507ZM73.1912 102.923C72.9843 102.365 71.332 104.439 71.1964 104.765C70.6981 105.638 71.6349 105.872 72.3614 105.118C72.8431 104.598 73.2114 103.668 73.1968 102.946L73.1933 102.923L73.1912 102.923ZM76.6384 98.554C76.2664 98.8794 76.5386 99.0763 76.8446 99.0926C77.2612 99.1234 77.8103 98.9973 78.1491 98.7105C78.8727 97.9811 77.757 97.8563 77.0885 98.2577C76.9273 98.3397 76.7784 98.4319 76.6688 98.5254L76.6363 98.5543L76.6384 98.554ZM80.4287 92.5924C79.4582 92.9168 78.0537 93.9942 78.1391 94.9284C78.362 96.551 80.6204 95.9216 81.4305 95.2488C82.5933 94.4266 81.8343 93.6998 82.3318 92.8795C82.4175 92.6695 83.0091 92.1739 82.6834 92.0693C81.9478 92.0072 81.3738 92.2574 80.48 92.5726L80.4287 92.5924ZM75.4873 94.2591C74.9331 94.7442 76.2156 94.9256 76.5081 94.9391C76.9046 94.937 77.5143 95.042 77.7401 94.6666C77.7157 93.9227 76.0212 93.8276 75.5145 94.2382L75.4873 94.2591ZM78.2554 91.3677C77.3307 92.202 77.399 92.8046 79.0793 92.2096C79.7894 91.9702 80.526 91.7051 81.2135 91.4018C81.8882 91.1292 84.0369 89.8673 83.034 89.2351C81.6546 88.8689 79.3619 90.4001 78.2876 91.3364L78.2533 91.368L78.2554 91.3677ZM87.8791 92.1766C87.3468 93.156 89.7423 94.7654 90.3545 94.161C90.6301 93.3357 88.4786 91.4875 87.895 92.1526L87.8791 92.1766ZM91.5053 96.0449C89.7341 96.0166 90.138 97.9364 91.5729 98.2678C92.3158 98.509 93.6512 97.8699 93.1052 96.8706C92.7718 96.308 92.153 96.0697 91.553 96.0449L91.505 96.0425L91.5053 96.0449ZM95.2243 96.6877C94.8773 96.6872 94.458 96.6375 94.1819 96.7922C93.7212 97.1334 93.4549 97.8034 93.2264 98.3643C92.93 99.0942 93.3398 99.1957 93.9821 99.2286C94.9134 99.3235 96.0858 98.971 96.907 99.6211C97.3667 100.013 97.4505 100.719 98.0396 100.991C99.2317 101.467 100.52 100.263 100.943 99.192C101.194 98.493 101.06 97.8882 100.939 97.0484C100.769 95.6509 99.6512 94.3342 98.321 94.2682C97.5232 94.1964 96.439 94.3985 96.2368 95.3377C96.0883 96.6077 96.4769 96.6837 95.255 96.6903L95.2289 96.6894L95.2243 96.6877ZM91.4249 101.341C91.1325 101.575 90.906 101.945 90.9424 102.349C91.0902 103.004 92.3385 102.26 92.6074 101.854C93.124 101.103 91.9313 100.899 91.462 101.313L91.4249 101.341ZM103.587 97.5187C101.073 98.8021 101.868 100.913 104.52 100.89C106.028 100.941 106.741 99.6892 105.975 98.3817C105.479 97.524 104.501 97.1452 103.632 97.5023L103.587 97.5187ZM107.722 92.2983C106.554 92.1429 105.377 92.1716 104.201 92.1641C102.996 92.2091 101.156 91.9146 100.86 92.8753C100.938 94.1808 104.247 94.1138 105.192 94.589C107.602 95.326 106.857 98.7269 109.063 99.6727C109.814 100.028 110.771 100.035 111.603 99.9286C112.872 99.7731 114.508 99.4635 116.057 99.196C118.666 98.6603 121.915 98.4365 123.959 96.7649C125.722 95.4194 125.995 93.3734 123.491 92.79C122.155 92.511 120.769 92.8018 119.441 93.3005C117.286 94.0803 115.335 95.6392 113.027 95.555C111.896 95.507 110.575 95.1079 110.192 94.0095C109.798 92.7229 108.918 92.4615 107.765 92.3063L107.723 92.3006L107.722 92.2983ZM88.964 87.2628C89.343 87.4484 89.5671 87.7727 89.6497 88.1521C89.7367 88.5019 89.8209 88.7897 90.39 88.9129C91.0251 89.0574 92.3806 89.0306 93.3245 89.2391C94.3709 89.3647 97.9917 90.7002 97.3933 88.6103C96.3576 86.3797 93.3307 85.5362 91.3455 84.8889C89.9368 84.5295 88.1342 84.4363 87.1553 85.6922C86.5714 86.7467 88.227 86.8573 88.9386 87.2523L88.9644 87.2652L88.964 87.2628ZM99.2941 75.1528C98.7876 76.0586 98.6364 77.2232 99.4452 77.9641C99.7654 78.2931 99.9493 78.4504 99.7103 78.6933C99.3488 79.0603 98.81 79.4013 98.6527 79.9587C98.4509 81.1334 100.401 81.3605 101.381 81.3401C102.132 81.3204 102.871 81.1848 103.605 81.0932C104.327 81.0226 106.096 80.7556 105.249 81.8545C104.799 82.5235 103.512 83.273 104.073 84.2388C105.424 85.9122 109.503 85.5415 111.098 84.4906C111.848 84.0408 112.395 83.3453 112.936 82.5978C113.501 81.8081 114.197 80.9362 114.429 80.3411C114.956 78.8072 113.432 78.1239 112.378 77.2374C111.861 76.8274 111.369 76.4186 110.798 76.0817C110.255 75.755 109.652 75.4903 109.077 75.2262C107.856 74.6726 106.667 73.9843 105.396 73.4719C102.937 72.372 100.756 72.4897 99.3146 75.116L99.2923 75.1555L99.2941 75.1528ZM98.7216 87.7343C99.0313 88.2692 99.2126 88.6553 99.6229 88.877C100.451 89.1966 101.511 88.6689 102.219 88.1702C102.883 87.6996 103.433 86.7321 102.646 86.0984C101.542 85.2652 99.51 84.8268 98.4225 84.7891C97.8314 84.7798 97.505 85.0622 97.7983 85.8064C98.0083 86.4285 98.3762 87.1061 98.6983 87.6945L98.7191 87.7322L98.7216 87.7343ZM144.853 58.8582C144.468 58.3707 143.464 58.3853 142.746 58.3375C140.72 58.2322 138.638 58.3544 136.63 58.571C134.487 58.7575 132.206 58.638 129.969 59.0213C128.304 59.3666 125.401 59.7327 124.125 60.2716C123.168 60.7334 124.247 61.3973 123.094 61.7013C121.37 62.1514 117.882 62.6636 116.17 64.0928C114.393 65.6928 118.665 66.4349 119.55 66.8324C120.008 66.9941 120.08 67.0842 119.695 67.0942C119.163 67.1145 117.661 66.9469 116.255 66.7482C113.815 66.3378 112.139 66.4538 109.889 67.6013C108.387 68.3281 105.908 69.4115 105.109 70.2749C103.592 72.011 107.54 73.3261 109.504 73.1977C110.338 73.192 111.216 73.033 112.01 72.8723C112.653 72.7391 113.482 72.5851 113.877 72.963C114.619 73.3991 116.017 72.5293 116.838 72.2034C118.101 71.6161 119.315 70.9905 120.526 70.3149C121.214 69.9321 122.052 69.4306 122.698 69.0783C123.075 68.8747 123.277 68.8034 123.236 68.9225C122.947 69.4253 121.996 70.2132 121.39 70.7636C120.078 71.9041 118.579 72.9597 117.044 73.7276C115.927 74.3337 114.021 74.9003 113.356 75.5151C112.029 76.6843 115.327 78.4724 116.004 79.1875C116.342 79.521 116.896 79.8773 116.956 80.3225C116.949 80.564 116.591 80.6949 116.025 80.8669C115.621 80.9928 115.107 81.1257 114.607 81.3622C113.037 82.0393 111.404 84.1895 113.716 85.0449C114.771 85.4504 116.457 85.1838 117.17 85.254C117.458 85.2659 117.79 85.3961 117.403 85.6348C117.03 85.8857 115.944 86.2469 114.874 86.4156C114.221 86.5551 113.381 86.5497 112.837 86.9155C112.308 87.3031 112.318 88.1308 112.095 88.9866C111.892 90.1496 110.743 91.6354 112.364 91.9749C114.555 92.4037 117.638 91.2602 119.925 90.7346C121.4 90.4494 122.151 90.8913 123.354 90.6954C124.272 90.5135 125.102 89.7271 125.497 88.79C125.723 88.2294 125.587 87.6226 125.362 87.0748C124.665 85.4974 124.2 83.9523 125.402 82.5208C126.185 81.4818 127.278 80.6655 127.962 79.5165C128.302 78.9771 128.499 78.2503 128.546 77.6592C128.601 76.7109 128.693 75.8316 129.464 75.3162C130.757 74.3229 133.095 73.3857 133.282 71.485C133.289 71.1835 133.137 70.9204 133.291 70.6471C133.495 70.2846 134.355 69.7581 134.836 69.3945C135.675 68.7968 136.556 68.1372 137.362 67.4651C138.728 66.3334 139.912 65.1571 140.731 64.3388C141.017 64.0359 141.957 63.1728 141.128 63.1682C139.997 63.2164 138.663 63.562 137.531 63.5551C135.56 63.5402 140.077 62.3028 140.998 61.8297C141.884 61.4507 145.158 59.9396 144.86 58.874L144.853 58.8606L144.853 58.8582ZM120.3 101.385C118.805 100.942 116.944 101.288 115.557 101.988C113.407 103.18 113.425 106.002 113.156 108.598C113.117 110.121 112.606 112.188 113.563 113.438C115.433 115.391 120.112 114.971 122.228 114.521C122.96 114.358 123.633 114.014 124.254 113.602C125.033 113.127 125.936 112.755 126.839 112.388C128.629 111.612 129.712 112.216 131.175 113.358C132.51 114.351 133.677 115.492 135.086 116.633C136.13 117.497 137.317 118.289 138.262 119.259C140.402 121.304 139.431 124.919 137.268 126.467C136.239 127.24 134.871 127.66 133.859 128.029C133.186 128.237 132.226 128.793 132.291 129.3C132.335 129.86 132.877 130.132 133.661 130.261C135.238 130.439 136.758 129.584 138.34 129.709C139.557 129.801 140.617 130.088 141.343 131C141.824 131.697 141.968 132.355 142.85 132.645C143.592 132.935 149.002 134.505 148.713 133.152C148.303 132.293 147.296 131.748 146.741 131.029C145.73 129.686 149.036 131.238 149.424 131.09C150.788 131.238 150.979 129.615 150.454 128.555C149.451 126.089 145.009 125.454 145.397 122.292C145.738 120.842 147.347 121.168 148.345 121.953C149.406 122.6 151.168 124.81 152.235 123.337C152.83 122.497 153.492 118.858 152.453 118.03C151.762 117.471 150.771 117.394 149.926 117.149C148.621 116.837 147.181 116.335 145.845 115.914C144.856 115.581 144.11 115.477 143.545 115.103C143.144 114.789 143.451 114.435 143.978 113.922C146.026 112.192 145.415 111.191 143.499 109.555C142.199 108.487 140.783 107.443 139.305 106.705C137.798 105.966 136.257 105.867 134.771 105.082C132.787 104.033 131.312 102.926 129.081 103.693C127.533 104.103 125.886 105.558 124.305 104.537C122.99 103.719 121.872 101.806 120.33 101.399L120.296 101.388L120.3 101.385ZM123.459 100.934C122.545 101.623 123.834 102.606 124.52 102.889C125.984 103.673 128.57 103.222 129.411 102.533C130.644 101.618 128.14 101.184 127.481 100.997C126.342 100.746 124.397 100.41 123.487 100.918L123.459 100.934ZM121.339 128.468C121.028 128.839 120.879 129.513 120.794 130.348C120.588 131.92 120.662 134.457 121.766 135.422C123.134 136.423 124.51 134.648 125.791 134.192C126.333 133.961 126.911 133.85 127.476 133.745C127.998 133.597 129.241 133.587 128.978 132.728C128.63 131.744 126.669 130.317 125.585 129.634C124.379 128.92 122.431 127.332 121.357 128.443L121.337 128.468L121.339 128.468ZM146.208 222.546C144.602 220.663 141.795 219.782 139.473 220.359C137.853 220.68 135.852 221.857 138.244 221.453C139.759 221.26 140.679 220.847 142.024 221.925C143.509 222.893 144.84 223.661 145.559 225.473C145.677 225.712 145.806 225.948 145.961 226.16C146.315 226.657 146.844 226.964 147.392 227.105C148.006 227.265 149.403 227.354 149.191 226.317C148.913 225.397 147.929 224.498 147.135 223.567C146.838 223.234 146.54 222.897 146.239 222.577L146.21 222.546L146.208 222.546ZM150.555 228.188C150.363 229.736 149.932 229.899 148.668 230.203C148.496 230.268 148.51 230.347 148.711 230.516C150.697 232.161 152.276 231.55 154.427 231.177C155.252 231.072 156.195 231.199 156.854 231.037C158.653 230.602 157.602 229.126 156.368 228.512C155.199 227.854 153.258 227.476 152.039 227.396C151.146 227.372 150.741 227.506 150.562 228.162L150.555 228.188ZM144.707 229.448C144.402 229.107 143.767 228.804 143.349 228.877C142.97 228.924 142.787 229.351 142.952 229.715C143.276 230.65 145.563 230.521 144.739 229.486L144.707 229.45L144.707 229.448ZM159.965 231.356C159.265 231.457 159.389 232.099 159.941 232.383C160.672 232.823 162.101 232.596 162.394 232.304C162.805 231.773 160.249 231.224 160.003 231.35L159.965 231.356ZM133.458 118.715C131.69 119.532 132.92 121.844 134.193 122.561C134.56 122.782 134.998 122.809 135.22 122.406C135.798 121.398 135.243 118.092 133.496 118.702L133.458 118.715ZM127.017 135.187C126.233 135.349 125.022 135.748 125.035 136.823C125.076 137.305 125.531 137.662 126.107 137.558C127.101 137.521 129.269 134.948 127.06 135.181L127.015 135.188L127.017 135.187ZM130.665 136.358C130.224 136.84 130.585 137.952 131.237 137.952C131.737 137.946 132.235 136.909 132.136 136.378C131.968 135.675 131.031 135.963 130.691 136.327L130.663 136.358L130.665 136.358ZM104.353 88.9608C103.932 89.147 102.192 89.6188 102.214 89.9954C102.624 90.2604 103.858 90.0573 105.183 89.9149C105.77 89.8359 106.373 89.7353 106.945 89.5888C107.485 89.4471 107.948 89.281 108.4 89.0086C109.293 88.4699 109.606 87.7254 109.173 87.524C108.351 87.29 107.569 87.8046 106.774 88.0689C106.054 88.3556 105.206 88.6638 104.407 88.9431L104.355 88.9605L104.353 88.9608ZM93.398 80.6175C92.5749 81.1744 92.5591 81.8811 93.6116 82.3665C94.324 82.6796 95.3045 83.0459 96.0041 82.7216C96.5753 82.4094 96.4945 81.5201 96.1685 80.978C95.589 79.8564 94.2745 79.9683 93.4355 80.5926L93.4001 80.6172L93.398 80.6175ZM213.263 108.882C212.111 109.517 210.964 110.198 209.967 111.081C208.911 111.883 207.89 115.003 206.415 113.486C205.658 112.715 204.647 111.466 203.578 111.347C202.661 111.317 202.113 112.51 202.095 113.407C202.064 114.248 202.9 114.773 203.499 115.262C204.077 115.701 204.679 116.163 205.14 116.755C205.619 117.389 206.218 117.902 206.984 118.065C209.087 118.678 211.29 118.24 213.406 117.658C215.833 116.9 218.428 114.804 219.872 112.603C221.364 110.296 220.459 108.665 218.003 107.996C216.341 107.6 214.767 108.075 213.301 108.862L213.263 108.882ZM364.556 209.073C363.839 210.083 364.47 213.495 365.605 214.198C366.113 214.564 366.774 214.346 367.026 213.77C367.533 212.878 367.025 211.121 366.307 210.162C365.876 209.566 365.147 208.606 364.573 209.056L364.556 209.073ZM363.812 208.142C363.894 208.317 364.368 208.924 364.351 208.558C364.305 208.383 364.07 207.824 363.888 208.073C363.861 208.111 363.867 208.105 363.805 208.199M426.603 242.279C425.615 244.058 423.512 244.798 421.955 245.954C420.88 246.655 419.726 247.897 419.054 248.743C418.474 249.415 417.917 250.143 417.829 251.111C417.723 252.165 417.917 253.367 418.079 254.477C418.321 256.056 418.569 257.513 419.083 258.907C419.784 260.767 421.017 262.329 421.756 264.171C421.943 264.614 422.11 265.06 422.24 265.524C422.716 267.113 422.426 268.529 422.851 269.96C423.061 270.587 423.471 271.009 424.096 271.198C426.18 271.797 427.992 270.052 429.742 269.098C431.265 268.32 432.952 267.596 434.155 266.347C434.692 265.836 435.184 265.264 435.745 264.788C437.412 263.522 439.19 262.46 441.12 261.683C443.247 260.968 445.732 261.116 447.752 262.213C448.432 262.557 449.141 262.962 449.874 263.041C450.351 263.094 450.78 262.993 451.203 262.836C451.943 262.592 452.33 262.197 452.809 262.728C453.068 263.03 453.194 263.771 453.599 264.361C453.87 264.767 454.212 265.081 454.556 265.426C455.486 266.341 456.277 267.471 457.357 268.226C458.311 268.95 459.398 269.462 460.542 269.418C462.124 269.324 463.673 269.042 465.237 268.825C467.471 268.5 469.766 267.175 470.49 264.717C470.703 264.029 470.825 263.215 470.938 262.481C471.213 260.168 472.016 258.071 472.466 255.782C472.961 252.801 473.096 249.67 472.171 246.788C471.746 245.393 470.841 244.325 469.852 243.335C468.965 242.38 468.043 241.635 467.157 240.728C466.382 239.907 465.572 239.114 464.637 238.515C462.425 237.12 460.748 235.686 459.729 233.063C458.707 230.384 456.636 228.393 454.787 226.353C453.438 224.91 453.093 226.609 453.137 227.864C453.151 229.569 453.608 231.48 453.288 233.156C452.76 235.916 450.672 235.034 448.845 234.168C447.608 233.55 445.932 233.022 445.642 231.361C445.387 230.089 446.151 228.104 444.676 227.505C443.015 226.796 441.113 227.937 439.78 228.91C439 229.477 438.267 230.071 437.666 231.003C437.116 231.918 436.744 233.13 435.615 233.305C434.96 233.45 434.208 233.393 433.532 233.528C431.831 233.824 430.803 235.421 429.655 236.789C428.942 237.661 428.226 238.558 427.771 239.624C427.389 240.487 427.103 241.42 426.623 242.242L426.602 242.277L426.603 242.279ZM386.5 211.503C385.792 212.088 387.281 213 387.77 213.46C388.358 213.938 388.949 214.397 389.515 214.896C390.949 216.251 392.169 217.714 393.461 219.307C394.633 220.854 395.627 222.444 397.031 223.802C398.244 224.912 401.288 227.883 402.794 226.79C403.401 226.313 403.619 225.117 403.422 224.248C403.037 222.393 401.457 221.307 400.343 219.989C397.687 216.395 397.292 216.65 393.638 214.79C391.498 213.803 388.72 210.689 386.514 211.493L386.498 211.503L386.5 211.503ZM403.783 226.78C403.128 226.965 402.623 227.616 403.143 228.213C403.558 228.713 404.602 228.937 405.26 228.985C406.742 229.112 408.169 229.055 409.691 229.155C411.149 229.24 413.952 229.264 414.917 228.714C415.883 228.097 413.816 227.311 413.326 227.137C411.768 226.543 410.222 226.748 408.677 226.959C407.091 227.179 405.381 226.373 403.815 226.773L403.784 226.782L403.783 226.78ZM417.897 227.993C417.294 228.223 416.966 228.775 418.147 228.738C419.142 228.706 421.146 228.074 421.618 227.623C422.093 227.114 420.982 227.255 420.735 227.285C419.843 227.396 418.746 227.61 417.933 227.975L417.897 227.993ZM422.799 227.195C422.367 227.496 423.123 227.622 423.341 227.618C424.988 227.713 428 226.369 429.479 225.818C429.61 225.765 429.968 225.595 429.689 225.585C428.899 225.663 427.983 225.965 427.175 226.154C425.681 226.618 424.219 226.675 422.812 227.183L422.794 227.193L422.799 227.195ZM428.471 227.677C427.831 228.558 427.667 229.582 429.137 228.594C429.789 228.139 430.452 227.513 431.058 226.953C431.837 226.176 432.498 225.637 432.361 225.258C432.08 225.056 431.663 225.282 431.356 225.391C430.311 225.856 429.166 226.623 428.496 227.64L428.471 227.675L428.471 227.677ZM423.244 228.589C422.986 228.479 422.697 228.4 422.424 228.403C421.444 228.431 421.435 229.11 422.352 229.474C422.848 229.67 423.436 229.849 423.959 229.779C424.666 229.634 423.744 228.776 423.293 228.613L423.244 228.591L423.244 228.589ZM413.861 206.145C413.278 207.089 412.729 208.033 412.049 208.89C411.41 209.722 410.572 210.469 409.928 211.299C409.209 212.216 408.499 213.469 407.459 213.881C406.908 214.142 406.243 214.262 405.852 214.807C405.017 216.173 405.888 217.95 406.711 219.196C407.686 220.712 409.231 221.609 410.997 221.645C413.572 221.595 416.27 222.418 417.224 219.152C417.465 218.399 417.586 217.554 417.8 216.781C418.466 214.594 419.313 213.399 418.321 211.095C418.014 210.256 417.805 209.336 417.959 208.438C418.051 207.676 418.24 206.881 418.096 206.121C417.861 204.765 416.392 204.064 415.3 204.616C414.686 204.92 414.271 205.509 413.886 206.108L413.863 206.145L413.861 206.145ZM499.998 252.822C499.669 253.11 501.087 254.278 501.326 254.6C502.154 255.436 502.799 256.577 503.022 257.822C503.19 258.669 503.327 259.514 503.527 260.347C503.782 261.373 503.873 262.229 504.334 262.857C505.611 264.517 506.95 261.811 507.575 260.654C508.011 259.742 508.499 258.798 508.712 257.816C508.817 257.382 508.784 256.873 508.346 256.698C507.815 256.44 506.792 256.337 505.895 256.254C504.869 256.178 503.896 255.616 503.12 254.906C502.489 254.354 501.773 253.801 501.097 253.31C500.761 253.082 500.359 252.794 500.004 252.819L499.996 252.82L499.998 252.822ZM502.18 262.98C500.766 263.766 500.413 265.757 499.41 267.052C498.044 268.982 495.813 270.68 494.805 272.86C493.152 276.218 497.843 275.548 498.997 274.052C499.79 273.226 500.234 271.947 500.747 270.79C501.087 270.02 501.478 269.288 501.919 268.58C502.657 267.427 503.839 265.73 503.96 264.507C504.118 263.43 503.132 262.462 502.204 262.967L502.177 262.981L502.18 262.98ZM497.081 274.077C496.783 273.963 496.448 274.088 496.26 274.357C495.902 274.873 495.786 276.085 496.183 276.29C496.612 276.347 496.949 275.861 497.205 275.527C497.532 275.103 497.71 274.338 497.114 274.094L497.08 274.08L497.081 274.077ZM464.526 271.98C462.704 273.106 465.917 278.054 468.108 275.639C469.024 274.741 469.904 271.942 469.381 270.877C468.966 270.382 468.021 271.075 467.486 271.214C466.617 271.621 465.355 271.591 464.555 271.966L464.527 271.983L464.526 271.98ZM441.959 214.283C441.218 214.414 440.36 213.709 439.659 213.257C438.918 212.732 437.719 212.286 437.026 212.467C436.58 212.525 436.066 213.016 436.607 213.418C437.089 213.773 437.713 213.972 438.191 214.356C438.695 214.739 438.947 215.211 439.351 215.65C439.877 216.239 440.405 216.52 441.187 216.793C442.694 217.316 444.571 217.6 445.926 218.501C448.164 219.826 446.471 222.051 448.107 222.551C449.591 222.945 451.322 223.261 452.835 222.919C453.905 222.642 454.875 221.804 455.856 221.302C456.453 220.988 457.1 220.804 457.775 220.837C459.451 220.968 460.97 221.876 462.601 222.433C468.216 224.462 462.404 220.362 460.956 219.203C457.584 216.575 456.29 214.34 451.926 213.182C449.547 212.584 446.942 211.922 444.651 212.953C443.595 213.418 442.763 214.178 441.987 214.283L441.958 214.288L441.959 214.283ZM428.591 210.611C428.072 210.896 427.57 211.14 427.005 211.288C426.299 211.481 425.582 211.486 424.861 211.54C423.703 211.623 422.545 211.971 421.824 212.787C420.894 213.949 420.836 215.506 420.586 217.072C420.447 218.11 420.291 219.131 420.323 220.186C420.366 221.983 421.213 224.477 422.159 225.712C422.898 226.656 423.154 224.91 423.182 224.317C423.295 223.74 422.93 221.483 423.682 221.612C424.268 221.879 424.907 222.497 425.537 222.784C426.374 223.278 427.09 223.076 426.71 221.693C426.357 220.564 425.528 219.501 425.78 218.254C425.873 217.137 427.37 215.863 426.777 215.698C426.035 215.711 425.275 216.153 424.505 216.223C423.711 216.406 422.438 216.158 422.596 215.113C423.188 212.764 426.2 213.314 427.859 212.376C428.685 211.955 429.492 211.321 429.952 210.466C430.238 209.858 429.638 210.018 428.623 210.594L428.588 210.612L428.591 210.611ZM431.823 208.431C431.117 208.204 430.927 209.432 430.841 210.048C430.593 211.302 431.274 213.261 431.934 213.823C432.037 213.918 432.157 213.991 432.28 213.989C432.966 213.778 432.76 212.148 432.696 211.431C432.559 210.488 432.508 208.9 431.842 208.443L431.821 208.431L431.823 208.431ZM430.444 217.692C429.772 217.488 428.615 217.771 428.769 218.685C428.921 219.357 429.646 219.507 430.193 219.437C431.627 219.285 432.406 218.213 430.489 217.704L430.442 217.695L430.444 217.692ZM432.757 217.018C432.241 217.805 432.304 218.834 433.417 218.726C434.315 218.658 435.187 218.293 436.077 218.144C436.536 218.051 436.953 217.998 437.345 217.864C437.501 217.804 437.605 217.736 437.644 217.643C437.747 217.015 436.372 216.345 435.85 216.157C434.778 215.744 433.413 215.943 432.779 216.981L432.757 217.018ZM403.513 185.641C402.608 185.662 401.096 186.455 401.109 187.634C401.149 188.409 401.905 188.838 402.548 188.688C403.293 188.535 403.91 187.776 404.138 187.025C404.378 186.335 404.262 185.66 403.55 185.642L403.513 185.641ZM418.083 185.525C417.213 186.262 417.082 187.638 416.949 188.747C416.827 189.688 416.871 190.523 417.405 191.349C418.21 192.679 419.784 193.477 421.089 193.778C421.862 193.974 422.875 194.241 423.424 193.892C424.004 193.419 421.613 192.466 421.298 192.203C420.78 191.885 420.276 191.545 419.999 190.983C419.306 189.677 420.234 187.486 419.665 186.132C419.358 185.385 418.687 185.073 418.108 185.507L418.083 185.525ZM426.142 198.548C425.607 198.959 425.167 199.511 424.603 199.887C424.135 200.193 423.644 200.418 423.205 200.788C422.58 201.346 422.095 201.977 422.05 202.645C422.078 202.876 422.501 202.709 422.683 202.679C423.092 202.581 423.558 202.496 423.966 202.702C424.856 203.043 425.916 205.159 426.778 204.472C427.778 203.679 428.412 202.492 428.157 200.975C427.924 200.01 427.383 197.695 426.166 198.531L426.142 198.548ZM423.124 195.225C422.191 195.09 421.174 194.681 420.224 194.776C419.681 194.877 419.387 195.347 419.493 195.805C419.609 196.309 420.066 196.625 420.429 196.921C421.25 197.422 421.381 198.342 421.598 199.242C421.672 199.481 421.755 199.716 421.958 199.841C422.855 200.242 423.728 198.31 423.899 197.334C424.104 196.308 424.39 195.469 423.152 195.233L423.124 195.225ZM424.439 193.955C423.965 194.536 424.281 195.462 424.467 196.155C424.588 196.579 424.659 197.008 424.755 197.402C424.793 197.543 424.846 197.723 424.981 197.769C425.306 197.853 425.536 197.642 425.715 197.327C426.103 196.588 426.423 195.03 425.609 194.355C425.295 194.092 424.822 193.705 424.455 193.943L424.44 193.957L424.439 193.955ZM418.015 197.206C417.667 197.357 417.374 197.978 417.17 198.384C416.787 199.204 416.284 200.335 415.857 201.133C415.59 201.608 415.082 202.735 415.924 201.99C416.485 201.42 417.172 200.59 417.664 199.764C418.036 199.147 418.341 198.142 418.25 197.456C418.22 197.257 418.152 197.166 418.029 197.197L418.014 197.199L418.015 197.206ZM465.261 212.853C464.847 213.06 464.322 213.683 463.765 214.264C463.285 214.791 462.613 215.169 461.989 215.451C461.587 215.66 461.069 215.84 460.825 216.237C460.627 216.591 461.038 216.948 461.846 217.001C463.358 217.083 465.13 216.101 465.757 214.625C466.012 214.048 466.23 212.445 465.287 212.84L465.263 212.853L465.261 212.853ZM468.019 213.884C468.441 214.808 469.651 215.664 470.596 215.913C471.302 216.066 470.968 215.47 470.675 215.151C470.191 214.578 469.219 213.765 468.606 213.536C468.324 213.403 467.832 213.371 468.008 213.854L468.019 213.886L468.019 213.884ZM416.866 174.767C415.646 175.134 414.823 176.626 415.376 178.001C415.621 178.786 416.503 180.204 417.082 180.145C417.796 180.023 417.886 178.706 418.041 178.005C418.261 176.707 418.368 174.331 416.901 174.754L416.867 174.764L416.866 174.767ZM437.159 111.624C436.937 112.271 436.878 113.352 436.836 114.12C436.781 115.388 436.769 116.647 437.007 117.935C437.296 119.447 437.635 120.946 437.727 122.49C437.846 124.188 437.936 125.968 438.161 127.715C438.306 129.049 438.711 131.168 440.102 131.148C440.506 131.126 440.818 130.757 440.747 130.267C440.698 129.868 440.48 129.413 440.328 129.035C439.768 127.631 438.947 125.707 440.052 124.497C440.489 123.987 441.424 123.814 441.497 123.404C441.559 122.801 441.221 122.311 440.992 121.68C440.503 120.492 439.884 119.311 439.41 118.111C438.862 116.72 438.54 115.394 438.251 113.909C438.152 113.477 437.62 110.675 437.166 111.609L437.158 111.627L437.159 111.624ZM439.587 132.579C439.042 133.455 439.032 134.692 438.606 135.821C438.073 137.286 436.925 138.76 437.36 140.452C437.546 141.121 437.871 141.463 438.034 141.352C438.319 141.013 438.259 140.39 438.508 139.999C438.858 139.353 439.579 139.355 440.283 139.253C441.771 139.11 443.207 138.564 444.227 137.309C444.804 136.599 445.692 135.23 444.755 134.547C443.717 133.78 442.332 133.36 441.216 132.771C440.643 132.487 439.935 132.145 439.602 132.56L439.585 132.58L439.587 132.579ZM438.948 141.303C438.528 142.218 438.489 143.295 438.421 144.409C438.338 146.261 438.011 148.384 436.645 149.588C436.071 150.023 435.467 150.057 435.021 150.372C434.338 150.889 434.094 151.856 433.539 152.524C432.93 153.38 432.069 153.772 431.102 154.339C430.26 154.81 429.494 155.375 428.798 156.141C427.907 157.17 426.429 158.948 426.476 160.422C426.518 161.312 427.029 162.487 427.72 162.916C428.001 163.052 428.219 162.916 428.428 162.636C428.864 162.042 428.868 161.169 428.785 160.337C428.728 159.608 428.599 159.091 428.72 158.508C428.92 157.67 429.963 157.22 430.721 156.896C431.443 156.604 432.24 156.554 432.895 156.589C433.877 156.631 434.456 156.806 435.234 156.465C435.886 156.145 436.333 155.51 436.951 155.114C437.769 154.529 438.804 154.443 439.693 153.969C440.524 153.563 440.995 152.9 441.091 151.934C441.239 150.702 440.998 149.219 441.07 147.93C441.15 146.538 441.33 145.186 441.185 143.783C441.131 142.952 440.915 141.826 440.503 141.229C439.996 140.405 439.279 140.542 438.957 141.278L438.944 141.304L438.948 141.303ZM432.706 155.072C431.253 155.143 429.481 156.535 429.653 158.341C429.772 159.845 430.708 160.22 431.629 159.42C432.606 158.715 435.557 155.26 432.747 155.071L432.708 155.072L432.706 155.072ZM497.562 83.7543C497.02 83.6799 496.363 83.6517 495.965 83.9041C495.678 84.1036 495.734 84.3741 496.107 84.6086C496.796 85.0285 497.678 85.2392 498.652 85.3469C499.348 85.3885 500.123 85.4974 500.743 85.2691C501.558 84.5547 498.071 83.8073 497.617 83.7627L497.562 83.7543ZM479.779 64.5116C478.89 65.2613 479.899 66.1425 480.909 66.2135C481.745 66.2773 482.538 66.0254 483.401 65.8109C484.22 65.5719 484.954 65.4249 485.584 65.0799C486.151 64.7586 486.186 64.311 485.721 64.0544C484.879 63.6719 483.89 63.7443 482.726 63.8623C481.796 64.022 480.575 64.0165 479.803 64.496L479.78 64.514L479.779 64.5116ZM432.849 52.4871C433.134 53.3888 434.107 53.9269 434.898 54.2258C436.478 54.8069 438.224 54.6659 439.592 53.7502C440.707 53.029 440.541 52.3186 439.211 52.202C438.247 52.1047 437.129 52.091 436.223 51.9657C435.404 51.8658 432.827 51.0746 432.846 52.4612L432.849 52.4847L432.849 52.4871ZM425.441 56.495C423.892 58.515 429.238 60.763 430.616 60.7015C431.146 60.6648 431.2 60.1566 430.712 59.514C430.183 58.8463 429.532 58.3652 428.864 57.8099C427.943 57.0907 426.405 56.0538 425.459 56.4827L425.443 56.4947L425.441 56.495ZM431.973 51.79C431.708 50.5392 429.564 49.786 428.501 49.2878C427.101 48.6796 425.989 49.4676 424.626 49.6037C423.821 49.6868 422.99 49.4878 422.177 49.5192C419.948 49.5792 419.017 52.1717 420.471 54.0051C422.367 56.2621 424.25 54.8456 426.332 54.1971C428.075 53.833 430.151 54.3488 431.537 52.9207C431.809 52.649 432.033 52.2185 431.975 51.8185L431.972 51.7927L431.973 51.79ZM358.688 32.2618C358.102 32.5353 357.554 33.1302 356.905 33.7233C355.893 34.6982 354.04 36.4275 354.36 38.0642C354.809 39.2705 356.034 39.2971 357.362 39.8609C359.211 40.565 360.994 41.6299 362.955 41.841C364.628 41.9658 367.226 42.3643 367.36 39.9811C367.379 38.8773 366.667 37.7829 365.912 37.1229C365.415 36.7748 364.74 36.6965 364.211 36.2716C363.849 36.0016 363.603 35.6134 363.361 35.2172C362.874 34.4518 362.549 33.3807 361.747 32.7854C360.871 32.1484 359.678 31.8191 358.72 32.2473L358.69 32.2615L358.688 32.2618ZM370.14 39.5182C369.045 40.0128 366.422 43.1948 366.937 44.4921C367.419 45.2655 369.133 44.6918 370.224 44.5632C371.437 44.327 372.682 44.2159 373.884 43.9167C376.395 43.2226 375.877 42.034 373.962 41.256C373.262 40.9242 371.916 40.5817 371.49 40.0835C371.301 39.8597 371.27 39.6793 371.213 39.4451C371.166 39.0459 370.486 39.3073 370.172 39.5036L370.14 39.5205L370.14 39.5182ZM307.312 35.1944C306.6 35.4894 304.768 37.1914 305.63 37.7176C306.498 37.9735 307.515 37.3897 308.414 37.0064C309.531 36.4459 311.644 35.2518 310.52 34.6499C309.509 34.3266 308.303 34.6963 307.361 35.1702L307.315 35.1964L307.312 35.1944ZM310.73 38.5485C309.722 39.5684 310.186 40.7459 311.672 40.8821C312.263 40.9179 312.862 40.717 313.363 40.3985C314.056 39.9886 314.578 38.9866 314.173 38.144C313.512 36.9554 311.535 37.5855 310.763 38.5122L310.731 38.5459L310.73 38.5485ZM303.358 39.3611C303.027 39.5865 303.053 39.9312 303.443 40.0863C303.938 40.3287 305.074 40.3712 306.062 40.1499C306.497 40.0554 306.955 39.9094 307.35 39.7247C307.736 39.5655 308.545 39.0346 307.749 38.7678C306.471 38.4993 304.464 38.6965 303.384 39.3452L303.358 39.3634L303.358 39.3611ZM291.032 42.7846C291.784 42.7696 294.744 42.0583 294.933 42.8735C294.902 43.2195 294.515 43.528 294.405 43.7969C294.204 44.3346 295.221 43.8324 295.507 43.7002C296.53 43.2189 297.592 42.4889 298.569 41.8606C299.066 41.5404 299.597 41.2366 300.061 40.9357C300.279 40.778 300.5 40.6628 300.557 40.4331C300.398 39.6879 297.435 40.1328 296.302 40.2799C294.638 40.5359 293.21 40.8909 291.682 41.4196C290.473 41.8017 287.736 43.1261 290.985 42.787L291.031 42.7799L291.032 42.7846ZM301.958 41.6422C301.608 41.6084 298.82 42.2891 299.666 42.7598C300.353 42.9758 301.572 42.8927 302.41 42.7854C304.924 42.3409 303.601 41.3917 302.02 41.6352L301.958 41.6445L301.958 41.6422ZM309.956 40.8697C309.608 40.6794 309.269 40.7162 308.685 40.7274C307.897 40.779 306.998 40.9533 306.296 41.3646C304.923 42.2138 306.165 42.7833 307.259 42.5749C307.697 42.5881 310.378 41.4478 309.966 40.8825L309.954 40.8724L309.956 40.8697ZM316.004 37.7426C313.412 40.045 317.005 39.1347 318.041 38.3773C318.901 37.8676 319.68 36.6203 319.271 35.9031C318.535 34.8364 316.734 37.19 316.038 37.711L316.004 37.7426ZM230.26 130.207C230.039 132.935 231.339 131.491 232.276 132.66C232.62 133.216 232.845 134.492 233.508 135.082C234.466 136.154 237.114 137.004 236.095 138.874C235.561 139.842 234.867 141.064 234.757 142.374C234.705 143.053 234.616 143.924 235.261 144.281C236.218 144.836 237.788 144.505 236.674 145.902C236.386 146.397 233.738 148.802 234.66 149.136C235.136 149.216 236.949 148.464 237.871 148.154C240.468 147.146 243.516 146.667 245.706 144.928C246.028 144.641 245.971 144.335 245.81 143.979C245.648 143.593 245.399 142.945 245.181 142.223C245.037 141.771 244.893 141.315 244.694 140.883C244.376 140.176 243.91 139.581 243.671 139.216C243.105 138.4 243.938 137.849 242.97 137.105C241.659 136.135 239.807 134.71 238.3 133.813C236.209 132.629 235.548 132.382 236.374 130.233C236.56 129.578 236.776 128.791 236.297 128.24C235.671 127.561 234.515 127.75 234.011 126.898C233.768 126.504 233.685 125.954 233.226 125.851C231.378 125.836 230.477 128.395 230.265 130.165L230.26 130.207ZM228.831 135.447C228.089 135.792 227.89 136.603 227.54 137.322C227.34 137.754 227.095 138.151 226.836 138.561C226.569 138.983 226.282 139.442 226.133 139.936C225.814 140.979 226.382 141.605 226.328 142.724C226.326 143.611 225.805 145.072 226.103 145.861C226.65 147.084 228.259 146.016 229.061 145.587C230.363 144.816 231.675 143.787 231.958 142.2C232.221 140.692 232.288 138.874 231.984 137.322C231.643 135.635 230.262 134.796 228.862 135.435L228.834 135.449L228.831 135.447ZM258.945 162.154C258.581 163.087 258.16 164.374 258.554 165.401C258.72 165.813 259.034 166.093 259.379 165.93C259.852 165.746 259.803 164.244 259.719 163.521C259.693 163.114 259.38 161.12 258.959 162.121L258.945 162.154ZM259.111 166.834C258.175 167.549 257.821 168.913 258.138 170.12C258.454 171.594 259.84 172.339 260.574 170.824C260.97 170.065 261.146 168.834 260.958 167.923C260.795 166.889 260.022 166.117 259.142 166.81L259.111 166.834ZM281.309 176.044C279.524 176.768 281.894 176.915 282.478 176.887C283.476 176.895 285.588 176.66 285.98 176.354C286.142 176.25 286.104 176.08 285.937 175.983C285.715 175.845 285.51 175.795 285.193 175.732C284.16 175.551 282.473 175.609 281.348 176.029L281.309 176.044ZM292.736 174.99C292.177 175.194 291.695 175.803 292.473 176.234C293.053 176.521 293.769 176.521 294.344 176.266C294.918 176.03 295.796 175.028 295.368 174.484C294.897 174.175 293.396 174.753 292.777 174.974L292.736 174.992L292.736 174.99ZM251.106 170.884C249.441 171.291 249.888 172.19 251.353 171.971C251.922 171.864 252.422 171.377 252.337 171.068C252.146 170.65 251.569 170.804 251.163 170.87L251.108 170.883L251.106 170.884ZM166.917 155.982C166.197 156.519 165.784 157.649 165.181 159.038C164.754 160.097 164.37 161.184 163.94 162.239C163.438 163.51 162.908 164.506 163.015 165.134C163.116 165.748 163.711 165.928 164.221 166.038C165.101 166.208 166.395 166.277 167.489 166.432C168.236 166.54 168.983 166.608 169.719 166.744C170.596 166.91 171.291 167.368 171.864 167.432C173.082 167.633 172.916 166.012 172.72 165.118C171.518 159.819 167.435 161.469 167.221 158.081C167.174 157.53 167.182 156.993 167.173 156.624C167.166 156.168 167.128 155.902 166.925 155.979L166.912 155.981L166.917 155.982ZM61.7124 169.559C61.4345 170.572 62.5248 171.862 63.2198 172.596C63.7006 173.129 64.6335 173.758 64.7516 173.343C64.9885 172.375 64.0612 170.173 63.2781 169.546C62.6641 168.992 61.9384 168.982 61.7231 169.529L61.7124 169.559ZM68.2427 175.393C68.3152 175.704 68.7248 176.008 69.3537 176.487C70.4741 177.296 72.0156 178.167 73.347 178.415C74.0016 178.588 75.5412 178.502 75.0608 177.493C74.5015 176.695 73.5212 176.476 72.6629 176.23C71.7652 176.012 70.8298 175.817 69.9343 175.585C68.9544 175.338 68.2659 175.156 68.2473 175.38L68.2491 175.392L68.2427 175.393ZM34.2657 166.348C33.6594 166.396 32.9701 166.644 32.474 167.053C31.8425 167.557 31.624 168.547 31.8133 168.958C32.1203 169.489 32.674 169.001 33.0103 168.713C33.4272 168.325 33.9369 167.789 34.3573 167.396C34.9299 166.875 35.4427 166.317 34.3067 166.346L34.2657 166.348ZM33.62 165.378C33.211 165.601 32.8302 166.317 33.6156 165.943C34.0433 165.715 34.5538 165.403 34.9762 165.197C35.1986 165.089 35.2775 165.007 35.074 164.966C34.6105 164.911 34.0775 165.088 33.667 165.344L33.6196 165.375L33.62 165.378ZM14.7796 164.684C14.4293 164.85 14.1027 164.971 13.8198 165.153C13.7364 165.219 13.6597 165.271 13.6988 165.374C13.7372 165.442 13.8195 165.485 13.899 165.524C14.2893 165.698 15.2777 165.871 15.8584 165.709C16.5645 165.588 16.7717 164.595 16.0183 164.384C15.6166 164.279 15.2253 164.489 14.8262 164.663L14.7796 164.684ZM326.29 253.055C325.779 254.471 324.705 255.306 323.577 256.2C322.861 256.793 322.08 257.414 321.761 258.368C321.38 259.459 321.976 260.72 322.268 261.835C322.551 262.843 322.451 263.891 322.226 264.923C322.053 265.778 321.85 266.643 321.861 267.526C321.892 269.42 322.901 271.371 324.249 272.584C325.204 273.449 326.545 273.324 327.462 272.57C328.69 271.577 328.556 270.212 328.678 268.444C328.728 267.602 328.799 266.673 328.879 265.76C329.055 263.786 329.273 261.602 329.301 259.802C329.34 258.609 329.244 257.246 329.348 256.098C329.436 255.075 329.703 254.393 329.688 253.455C329.677 252.245 328.932 250.615 328.193 249.921C326.972 248.796 326.731 252.267 326.305 253.012L326.288 253.055L326.29 253.055ZM303.084 86.1567C302.649 86.3089 302.1 86.6417 301.881 86.9729C301.555 87.3852 301.741 87.922 302.222 88.0247C302.807 88.1913 303.719 87.9285 304.432 87.4748C305.285 86.9878 306.02 85.9441 304.299 85.9156C303.94 85.9217 303.524 85.9989 303.139 86.1363L303.084 86.1567ZM325.801 54.2294C324.762 53.8888 323.913 54.6827 322.782 55.4545C321.825 56.1568 320.629 57.02 319.461 57.7204C317.589 58.9333 315.451 59.6166 313.621 60.8161C312.786 61.382 312.015 62.0585 311.281 62.7871C309.625 64.5588 307.8 66.2934 307.328 68.7469C307.051 70.481 306.859 71.9355 306.146 73.6681C304.433 77.4098 304.901 79.4233 308.663 80.7783C309.783 81.1742 311.179 81.3815 312.259 81.2498C313.126 81.1477 313.429 80.751 312.763 79.6882C311.357 77.5206 310.161 74.0547 311.029 71.3635C311.533 69.7586 312.557 68.5848 313.456 67.1871C315.308 64.2608 317.26 61.4348 320.236 59.7572C321.748 58.7789 323.463 57.9838 324.923 56.9413C325.788 56.3468 326.995 55.0348 325.822 54.2407L325.804 54.2315L325.801 54.2294ZM315.166 80.8085C314.005 81.3419 317.385 83.6368 317.594 82.961C317.704 82.6944 317.541 82.3826 317.414 82.1324C317.031 81.3249 315.827 80.5332 315.192 80.7997L315.166 80.8085ZM330.976 67.0994C330.664 66.9398 330.423 66.8511 330.111 66.8358C329.462 66.8039 329.412 67.3668 329.796 67.8184C330.253 68.4417 331.863 69.1481 332.153 68.4457C332.171 67.8276 331.491 67.4231 331.026 67.1279L330.974 67.0997L330.976 67.0994ZM159.768 163.131C158.973 162.516 156.653 162.097 156.255 162.46C156.076 162.699 156.375 162.932 156.563 163.103C157.167 163.589 158.054 163.909 158.805 163.931C159.269 163.971 160.388 163.744 159.793 163.154L159.768 163.131ZM157.548 168.894C157.216 168.75 157.494 169.362 157.6 169.581C158.088 170.669 159.226 171.54 160.132 170.867C160.201 170.806 160.254 170.724 160.249 170.638C160.133 170.223 159.593 170.177 159.263 170.013C158.697 169.868 157.937 169.194 157.566 168.904L157.547 168.892L157.548 168.894ZM498.368 78.813C494.326 82.7597 493.124 81.2753 488.546 79.4954C486.529 78.9129 482.495 81.5027 483.694 84.0958C484.764 86.0905 484.94 87.0831 482.634 87.8111C479.388 88.8588 476.826 92.1111 473.777 93.2709C470.412 94.3271 465.992 93.8862 463.91 97.626C462.64 99.5581 464.781 101.086 464.348 103.358C464.103 106.056 462.883 108.384 461.976 110.829C460.059 117.157 457.755 114.82 456.179 109.673C454.651 106.046 455.504 101.943 458.58 99.938C460.599 97.8711 462.125 95.6721 463.747 93.1772C464.107 92.5555 464.461 91.9371 464.772 91.2916C465.38 90.0484 465.253 89.0652 464.252 89.6226C462.122 91.3409 460.381 91.022 457.72 91.4717C453.696 92.7885 453.76 96.31 451.054 98.2113C449.79 98.6185 448.469 97.8877 447.194 97.8567C444.449 98.026 441.583 98.425 438.831 98.706C434.483 99.7782 432.748 105.531 429.508 108.575C426.8 111.248 430.197 113.899 432.726 112.988C435.966 111.766 436.672 116.722 436.452 119.353C436.406 125.694 434.994 131.992 431.251 136.833C427.328 140.454 425.492 138.494 423.399 145.312C422.271 148.052 424.198 150.545 424.687 153.225C424.987 154.735 424.302 157.555 422.792 156.605C421.605 155.321 421.614 152.939 420.7 151.436C419.369 148.42 415.579 146.084 412.65 147.262C409.106 149.124 408.452 152.405 413.053 152.963C415.662 153.564 412.265 156.498 413.119 158.277C413.992 161.064 415.856 164.059 416.244 167.051C416.884 173.687 412.487 179.695 407.194 182.126C405.4 183.481 403.493 183.855 401.404 184.265C392.37 188.989 407.102 193.022 402.177 200.749C401.414 202.229 399.932 204.239 398.39 202.578C396.789 201.254 393.42 197.919 391.663 200.101C390.392 202.651 391.84 205.913 393.732 207.726C395.257 209.529 399.561 213.393 398.175 215.42C395.453 214.704 392.705 209.095 390.56 206.75C388.761 203.476 389.085 198.319 386.855 195.365C386.125 194.266 384.906 194.65 383.894 194.454C382.786 194.116 382.396 192.767 381.72 191.643C379.648 187.376 375.886 185.185 372.329 188.575C369.53 191.416 367.548 195.446 364.971 198.53C363.45 200.904 363.978 204.05 363.509 206.796C361.946 215.349 357.784 206.456 355.56 203.225C352.564 199.771 352.79 190.941 350.865 191.489C349.949 191.618 348.662 192.319 347.863 191.514C347.123 189.941 346.624 189.43 345.132 188.718C342.889 187.112 340.602 186.431 338.122 187.521C334.43 188.788 330.708 187.28 327.021 186.58C321.615 186.656 318.92 180.632 316.86 182.434C315.79 185.398 319.638 188.694 321.673 190.096C323.919 192.413 326.47 188.87 328.62 189.168C330.261 189.877 332.185 191.189 333.025 192.981C333.43 197.432 329.409 200.765 326.667 203.381C323.591 206.025 320.244 208.55 316.588 210.104C314.255 211.06 312.902 208.952 312.002 206.821C309.974 202.519 306.421 199.445 304.171 195.294C302.099 192.631 300.328 189.281 297.828 187.134C296.417 186.064 294.437 186.043 295.834 188.356C297.898 192.244 300.603 195.677 302.6 199.584C304.54 203.803 307.265 207.502 310.817 210.233C314.89 215.409 316.304 215.397 321.898 212.843C328.112 210.742 321.501 224.211 320.359 226.407C317.794 230.222 315.23 234.069 313.53 238.484C309.84 248.048 322.04 253.187 311.915 262.441C309.639 264.799 310.985 268.31 311.119 271.278C310.869 273.597 309.032 275.163 308.538 277.415C307.977 280.492 307.137 283.78 305.388 286.395C303.212 290.842 295.954 295.074 291.732 292.82C289.859 291.24 289.24 288.519 287.844 286.46C285.687 283.615 283.843 280.617 282.901 277.038C281.839 273.369 278.994 270.744 278.022 267.083C277.111 263.841 278.202 260.258 278.021 257.013C277.371 251.806 274.948 246.739 271.597 242.943C269.185 240.35 270.591 235.83 268.198 233.379C257.692 227.766 258.068 232.375 248.531 234.353C240.856 236.805 234.779 228.314 230.916 222.011C230.116 219.889 230.632 217.554 230.194 215.305C229.703 212.829 228.617 210.639 229.139 208.195C229.951 204.94 231.087 201.613 232.618 198.756C234.432 196.259 235.983 193.681 236.315 190.391C237.166 187.404 238.72 183.989 241.253 182.441C242.664 181.92 244.252 182.173 245.655 181.389C247.851 180.353 249.794 178.545 252.151 177.819C254.794 177.05 257.799 176.068 260.52 175.904C263.79 176.11 261.818 180.85 263.941 182.448C265.955 183.87 268.646 184.161 270.83 185.312C274.442 187.144 275.733 186.915 277.859 183.397C279.431 181.849 281.746 182.916 283.599 183.36C287.276 184.35 291.466 183.729 294.938 182.39C297.579 180.838 298.1 175.6 296.976 172.749C296.376 171.58 294.915 171.971 293.882 172.1C289.798 173.061 284.51 172.931 283.524 167.229C283.87 164.365 287.283 163.527 289.03 161.797C290.916 160.519 293.253 159.89 295.524 160.492C298.098 161.495 304.465 160.808 301.624 156.521C299.321 153.717 294.578 153.171 297.143 148.543C297.258 148.04 297.261 147.432 296.715 147.303C295.581 147.173 293.918 148.158 293.481 149.418C293.181 150.312 293.612 151.305 293.304 152.166C292.988 153.067 291.733 153.274 291.019 152.975C290.238 152.439 289.941 151.148 289.506 150.365C287.294 147.809 285.429 152.913 285.054 154.876C283.622 157.825 286.031 162.767 283.872 163.698C281.598 164.523 276.86 163.519 278.376 167.891C278.73 169.261 279.692 171.185 279.05 172.472C276.946 174.85 273.326 163.637 271.586 162.38C269.198 160.426 266.311 158.244 263.781 156.648C261.313 156.237 263.217 159.896 264.186 160.81C266.003 163.291 269.358 164.246 270.913 166.799C271.191 168.272 269.965 169.582 269.646 171.019C269.157 172.447 268.736 174.604 267.043 174.581C264.287 173.694 270.343 171.486 267.739 168.399C266.189 166.19 263.614 165.341 261.744 163.491C259.818 161.249 257.396 159.261 254.755 161.261C250.726 162.939 248.593 167.383 247.125 171.576C246.666 173.616 246.568 175.86 245.089 177.321C242.943 179.82 237.067 180.936 235.108 178.102C234.515 175.715 234.408 172.938 234.032 170.43C233.875 168.512 233.195 167.064 233.936 165.741C236.292 162.671 244.748 166.553 243.426 160.065C241.991 152.813 232.879 155.097 242.917 149.132C245.704 146.553 247.741 142.921 249.417 139.348C250.248 137.886 252.613 137.373 253.12 135.806C253.767 133.184 250.636 129.03 252.958 126.898C256.826 126.09 250.34 139.327 263.788 134.32C269.611 132.208 269.167 131.948 270.342 125.886C271.595 124.591 274.455 124.71 272.839 121.906C272.586 121.312 272.118 120.69 272.411 120.081C274.068 118.432 277.547 118.906 279.252 117.173C279.261 115.955 276.114 117.135 275.284 117.094C267.69 119.351 266.909 111.885 270.798 106.673C271.631 105.228 270.746 103.282 269.132 103.29C266.476 103.124 266.944 106.666 266.211 108.565C265.52 110.427 263.961 111.953 263.528 114.033C263.084 115.85 264.244 117.401 264.728 119.041C265.062 120.652 264.126 122.096 263.448 123.783C262.745 125.278 262.36 127.199 261.658 128.582C258.389 133.82 256.298 122.434 253.53 122.34C252.055 123.64 249.853 127.593 247.712 124.832C244.038 118.012 248.874 114.769 252.216 110.032C256.487 102.615 256.992 93.6039 264.591 88.548C265.892 87.753 269.82 82.2657 269.871 86.133C270.706 86.1776 273.424 84.1231 274.823 84.9286C275.612 85.1436 275.766 85.8223 275.703 86.5794C275.636 88.2914 278.277 87.3806 279.124 87.7504C279.975 88.0809 280.32 89.2981 281.394 89.4388C284.758 90.1833 297.866 92.8508 289.862 97.689C286.845 99.2358 279.57 94.2358 283.674 99.6329C284.824 101.668 285.967 107.056 288.896 105.4C289.683 103.762 290.509 102.178 291.969 100.938C293.562 98.5101 297.781 97.5534 296.906 93.8586C296.83 93.0553 296.753 92.2687 297.218 91.725C298.217 91.442 298.496 93.8037 299.73 93.5476C305.412 91.8724 304.043 88.3388 312.768 87.6176C315.334 86.6099 319.133 87.5989 319.314 83.6846C321.969 80.0939 327.579 86.0111 330.225 86.2775C330.826 81.5954 323.981 80.0521 328.644 71.2976C329.491 69.7274 332.295 68.3521 332.995 70.7994C333.249 73.446 333.119 76.1603 333.802 78.8336C334.318 82.8541 338.647 87.6333 334.141 90.4001C331.724 92.5125 335.611 92.0458 336.557 91.004C339.171 89.2104 338.005 82.9754 342.133 85.3568C343.772 85.8618 341.31 83.897 340.785 83.4836C339.01 82.254 337.055 80.9675 336.876 78.4488C336.6 76.1972 336.254 73.6798 336.76 71.5096C337.166 70.7561 337.503 72.3855 337.823 72.6401C339.625 75.2718 339.416 74.0438 340.764 72.4292C341.914 71.669 344.007 71.9082 345.4 71.9887C350.559 71.9093 340.555 66.6819 345.95 65.1727C348.09 64.4096 352.315 64.9087 352.579 61.6526C352.639 60.2901 352.091 58.695 352.941 57.5307C357.001 53.9441 363.801 54.3381 368.487 51.5464C370.566 50.5402 371.206 47.8306 373.329 47.1663C376.038 46.0675 376.849 50.9017 379.388 49.9173C380.36 49.4581 381.304 48.7651 382.529 48.8951C384.357 49.0421 387.111 49.9507 387.771 52.2021C388.519 56.5434 380.492 59.1617 380.31 63.3043C382.113 63.5442 384.145 61.8071 386.031 61.6281C389.01 61.0941 392.07 61.2548 394.959 61.1767C396.561 61.4949 397.876 63.3277 399.833 62.6981C402.788 62.336 405.194 59.9126 408.185 60.0164C412.995 59.7925 410.939 67.5956 414.768 68.1376C416.233 68.0462 417.614 67.0542 419.095 66.881C421.285 66.555 424.415 67.3878 426.179 65.7608C428.136 61.9654 428.341 61.2349 433.03 62.1736C435.759 62.6918 438.322 63.1582 440.759 64.6196C442.505 65.7574 444.265 67.0613 446.245 66.8321C448.333 66.6587 450.545 66.1564 452.618 66.9084C459.722 72.0112 456.528 70.6737 465.168 70.5735C474.589 73.0331 466.238 67.4312 476.789 68.9319C482.136 69.4875 486.823 72.9985 491.796 75.012C494.371 76.1088 499.635 77.2539 498.377 78.8043L498.361 78.8163L498.368 78.813ZM319.611 148.052C319.895 147.952 320.249 147.894 320.092 147.525C319.817 147.021 319.331 146.496 318.578 145.922C317.757 145.32 316.898 144.719 315.883 144.735C313.968 144.717 311.962 145.859 310.701 147.431C307.57 151.188 308.166 152.045 311.061 155.822C311.934 156.889 313.693 157.648 314.017 158.64C314.246 159.29 314.135 160.002 314.041 160.675C313.784 162.454 313.216 165.051 314.505 166.484C315.694 167.896 320.521 168.174 321.8 167.171C323.609 165.643 321.086 162.829 320.855 160.949C320.63 159.706 321.051 158.76 320.972 157.623C320.904 156.908 320.121 156.85 319.644 156.401C319.301 156.109 319.06 155.801 318.789 155.405C318.274 154.617 317.792 153.911 317.119 153.2C316.658 152.712 316.077 152.127 315.852 151.593C315.624 151.097 315.425 150.509 315.524 149.994C315.922 148.595 318.381 148.435 319.584 148.061L319.61 148.057L319.611 148.052ZM162.287 108.115C162.323 109.415 164.009 109.499 164.794 108.964C165.745 108.393 165.403 106.926 164.499 106.509C163.615 106.018 162.338 106.98 162.289 108.071L162.289 108.114L162.287 108.115ZM350.602 33.3265C350.182 33.5677 349.719 33.7723 349.56 34.265C349.445 34.7103 349.988 35.1956 350.845 35.3185C351.691 35.4407 352.473 35.2146 353.229 34.747C354.181 34.0961 355.055 33.4882 355.633 32.6366C356.296 30.8825 351.127 33.0139 350.644 33.3056L350.602 33.3265Z" fill="#59E6CF" fill-opacity="0.25"/>
<g opacity="0.3">
<circle cx="90.7583" cy="159.802" r="1" fill="white"/>
<circle cx="64" cy="158" r="1" fill="white"/>
<circle cx="77" cy="140" r="1" fill="white"/>
<circle cx="41" cy="157" r="1" fill="white"/>
<circle cx="25" cy="158" r="1" fill="white"/>
<circle cx="48" cy="140" r="1" fill="white"/>
<circle cx="167" cy="118" r="1" fill="white"/>
<circle cx="191" cy="110" r="1" fill="white"/>
<circle cx="210" cy="115" r="1" fill="white"/>
<circle cx="234" cy="129" r="1" fill="white"/>
<circle cx="241" cy="138" r="1" fill="white"/>
<circle cx="239" cy="146" r="1" fill="white"/>
<circle cx="242" cy="145" r="1" fill="white"/>
<circle cx="230" cy="138" r="1" fill="white"/>
<circle cx="229" cy="144" r="1" fill="white"/>
<circle cx="240" cy="176" r="1" fill="white"/>
<circle cx="235" cy="167" r="1" fill="white"/>
<circle cx="243" cy="166" r="1" fill="white"/>
<circle cx="246" cy="156" r="1" fill="white"/>
<circle cx="247" cy="149" r="1" fill="white"/>
<circle cx="255" cy="140" r="1" fill="white"/>
<circle cx="254" cy="147" r="1" fill="white"/>
<circle cx="260" cy="153" r="1" fill="white"/>
<circle cx="254" cy="159" r="1" fill="white"/>
<circle cx="269" cy="167" r="1" fill="white"/>
<circle cx="259" cy="169" r="1" fill="white"/>
<circle cx="278" cy="166" r="1" fill="white"/>
<circle cx="279" cy="156" r="1" fill="white"/>
<circle cx="273" cy="148" r="1" fill="white"/>
<circle cx="285" cy="141" r="1" fill="white"/>
<circle cx="293" cy="151" r="1" fill="white"/>
<circle cx="297" cy="163" r="1" fill="white"/>
<circle cx="277" cy="147" r="1" fill="white"/>
<circle cx="266" cy="139" r="1" fill="white"/>
<circle cx="265" cy="144" r="1" fill="white"/>
<circle cx="282" cy="111" r="1" fill="white"/>
<circle cx="276" cy="95" r="1" fill="white"/>
<circle cx="263" cy="103" r="1" fill="white"/>
<circle cx="257" cy="121" r="1" fill="white"/>
<circle cx="263" cy="121" r="1" fill="white"/>
<circle cx="256" cy="112" r="1" fill="white"/>
<circle cx="251" cy="119" r="1" fill="white"/>
<circle cx="306" cy="103" r="1" fill="white"/>
<circle cx="322" cy="131" r="1" fill="white"/>
<circle cx="298" cy="120" r="1" fill="white"/>
<circle cx="306" cy="125" r="1" fill="white"/>
<circle cx="357" cy="84" r="1" fill="white"/>
<circle cx="419" cy="95" r="1" fill="white"/>
<circle cx="421" cy="120" r="1" fill="white"/>
<circle cx="378" cy="112" r="1" fill="white"/>
<circle cx="382" cy="148" r="1" fill="white"/>
<circle cx="400" cy="152" r="1" fill="white"/>
<circle cx="408" cy="162" r="1" fill="white"/>
<circle cx="407" cy="170" r="1" fill="white"/>
<circle cx="410" cy="167" r="1" fill="white"/>
<circle cx="396" cy="178" r="1" fill="white"/>
<circle cx="382" cy="190" r="1" fill="white"/>
<circle cx="393" cy="194" r="1" fill="white"/>
<circle cx="401" cy="201" r="1" fill="white"/>
<circle cx="367" cy="196" r="1" fill="white"/>
<circle cx="366" cy="188" r="1" fill="white"/>
<circle cx="353" cy="188" r="1" fill="white"/>
<circle cx="347" cy="191" r="1" fill="white"/>
<circle cx="354" cy="199" r="1" fill="white"/>
<circle cx="361" cy="210" r="1" fill="white"/>
<circle cx="315" cy="214" r="1" fill="white"/>
<circle cx="328" cy="202" r="1" fill="white"/>
<circle cx="314" cy="239" r="1" fill="white"/>
<circle cx="303" cy="275" r="1" fill="white"/>
<circle cx="291" cy="287" r="1" fill="white"/>
<circle cx="290" cy="282" r="1" fill="white"/>
<circle cx="305" cy="235" r="1" fill="white"/>
<circle cx="1" cy="1" r="1" transform="matrix(-1 0 0 1 291 197)" fill="white"/>
<circle cx="1" cy="1" r="1" transform="matrix(-1 0 0 1 249 189)" fill="white"/>
<circle cx="1" cy="1" r="1" transform="matrix(-1 0 0 1 241 202)" fill="white"/>
<circle cx="1" cy="1" r="1" transform="matrix(-1 0 0 1 243 212)" fill="white"/>
<circle cx="1" cy="1" r="1" transform="matrix(-1 0 0 1 261 207)" fill="white"/>
<circle cx="1" cy="1" r="1" transform="matrix(-1 0 0 1 256 229)" fill="white"/>
<circle cx="1" cy="1" r="1" transform="matrix(-1 0 0 1 287 238)" fill="white"/>
<circle cx="1" cy="1" r="1" transform="matrix(-1 0 0 1 313 187)" fill="white"/>
<circle cx="1" cy="1" r="1" transform="matrix(-1 0 0 1 311 166)" fill="white"/>
<circle cx="1" cy="1" r="1" transform="matrix(-1 0 0 1 329 162)" fill="white"/>
<circle cx="1" cy="1" r="1" transform="matrix(-1 0 0 1 308 144)" fill="white"/>
<circle cx="1" cy="1" r="1" transform="matrix(-1 0 0 1 357 173)" fill="white"/>
<circle cx="1" cy="1" r="1" transform="matrix(-1 0 0 1 365 160)" fill="white"/>
<circle cx="1" cy="1" r="1" transform="matrix(-1 0 0 1 330 176)" fill="white"/>
<circle cx="1" cy="1" r="1" transform="matrix(-1 0 0 1 385 165)" fill="white"/>
<circle cx="1" cy="1" r="1" transform="matrix(-1 0 0 1 487 74)" fill="white"/>
<circle cx="1" cy="1" r="1" transform="matrix(-1 0 0 1 462 107)" fill="white"/>
<circle cx="1" cy="1" r="1" transform="matrix(-1 0 0 1 453 215)" fill="white"/>
<circle cx="1" cy="1" r="1" transform="matrix(-1 0 0 1 461 240)" fill="white"/>
<circle cx="1" cy="1" r="1" transform="matrix(-1 0 0 1 436 241)" fill="white"/>
<circle cx="1" cy="1" r="1" transform="matrix(-1 0 0 1 462 261)" fill="white"/>
<circle cx="1" cy="1" r="1" transform="matrix(-1 0 0 1 464 266)" fill="white"/>
<circle cx="1" cy="1" r="1" transform="matrix(-1 0 0 1 471 258)" fill="white"/>
<circle cx="1" cy="1" r="1" transform="matrix(-1 0 0 1 509 258)" fill="white"/>
<circle cx="1" cy="1" r="1" transform="matrix(-1 0 0 1 497 272)" fill="white"/>
<circle cx="1" cy="1" r="1" transform="matrix(-1 0 0 1 418 213)" fill="white"/>
<circle cx="1" cy="1" r="1" transform="matrix(-1 0 0 1 422 190)" fill="white"/>
<circle cx="1" cy="1" r="1" transform="matrix(-1 0 0 1 440 151)" fill="white"/>
<circle cx="1" cy="1" r="1" transform="matrix(-1 0 0 1 445 135)" fill="white"/>
<circle cx="1" cy="1" r="1" transform="matrix(-1 0 0 1 411 215)" fill="white"/>
<circle cx="1" cy="1" r="1" transform="matrix(-1 0 0 1 396 217)" fill="white"/>
<circle cx="1" cy="1" r="1" transform="matrix(-1 0 0 1 408 227)" fill="white"/>
<circle cx="1" cy="1" r="1" transform="matrix(-1 0 0 1 430 226)" fill="white"/>
<circle cx="1" cy="1" r="1" transform="matrix(-1 0 0 1 434 210)" fill="white"/>
<circle cx="82.7583" cy="174.802" r="1" fill="white"/>
<circle cx="82.7583" cy="171.802" r="1" fill="white"/>
<circle cx="82" cy="182" r="1" fill="white"/>
<circle cx="92.7583" cy="177.802" r="1" fill="white"/>
<circle cx="94.7583" cy="179.802" r="1" fill="white"/>
<circle cx="88.7583" cy="182.802" r="1" fill="white"/>
<circle cx="89.7583" cy="203.802" r="1" fill="white"/>
<circle cx="92.7583" cy="206.802" r="1" fill="white"/>
<circle cx="97.7583" cy="203.802" r="1" fill="white"/>
<circle cx="101.758" cy="206.802" r="1" fill="white"/>
<circle cx="100.758" cy="211.802" r="1" fill="white"/>
<circle cx="103.758" cy="216.802" r="1" fill="white"/>
<circle cx="107.758" cy="220.802" r="1" fill="white"/>
<circle cx="110.758" cy="224.802" r="1" fill="white"/>
<circle cx="114.758" cy="224.802" r="1" fill="white"/>
<circle cx="1" cy="1" r="1" transform="matrix(1 0 0 -1 121.758 208.802)" fill="white"/>
<circle cx="1" cy="1" r="1" transform="matrix(1 0 0 -1 117 211)" fill="white"/>
<circle cx="1" cy="1" r="1" transform="matrix(1 0 0 -1 126.758 201.802)" fill="white"/>
<circle cx="1" cy="1" r="1" transform="matrix(1 0 0 -1 121 200)" fill="white"/>
<circle cx="1" cy="1" r="1" transform="matrix(1 0 0 -1 114.758 205.802)" fill="white"/>
<circle cx="1" cy="1" r="1" transform="matrix(1 0 0 -1 112.758 215.802)" fill="white"/>
<circle cx="1" cy="1" r="1" transform="matrix(1 0 0 -1 108.758 190.802)" fill="white"/>
<circle cx="1" cy="1" r="1" transform="matrix(1 0 0 -1 112.758 176.802)" fill="white"/>
<circle cx="1" cy="1" r="1" transform="matrix(1 0 0 -1 108.758 165.802)" fill="white"/>
<circle cx="1" cy="1" r="1" transform="matrix(1 0 0 -1 117.758 155.802)" fill="white"/>
<circle cx="1" cy="1" r="1" transform="matrix(1 0 0 -1 136.758 163.802)" fill="white"/>
<circle cx="1" cy="1" r="1" transform="matrix(1 0 0 -1 97.7583 172.802)" fill="white"/>
<circle cx="1" cy="1" r="1" transform="matrix(1 0 0 -1 104.758 142.802)" fill="white"/>
<circle cx="1" cy="1" r="1" transform="matrix(1 0 0 -1 137.758 152.802)" fill="white"/>
<circle cx="1" cy="1" r="1" transform="matrix(1 0 0 -1 149 180)" fill="white"/>
<circle cx="1" cy="1" r="1" transform="matrix(1 0 0 -1 143.758 181.802)" fill="white"/>
<circle cx="1" cy="1" r="1" transform="matrix(1 0 0 -1 144.758 184.802)" fill="white"/>
<circle cx="1" cy="1" r="1" transform="matrix(1 0 0 -1 142.758 187.802)" fill="white"/>
<circle cx="1" cy="1" r="1" transform="matrix(1 0 0 -1 137.758 186.802)" fill="white"/>
<circle cx="1" cy="1" r="1" transform="matrix(1 0 0 -1 133.758 235.802)" fill="white"/>
<circle cx="1" cy="1" r="1" transform="matrix(1 0 0 -1 138.758 240.802)" fill="white"/>
<circle cx="1" cy="1" r="1" transform="matrix(1 0 0 -1 161 240)" fill="white"/>
<circle cx="1" cy="1" r="1" transform="matrix(1 0 0 -1 167 242)" fill="white"/>
<circle cx="1" cy="1" r="1" transform="matrix(1 0 0 -1 169 246)" fill="white"/>
<circle cx="1" cy="1" r="1" transform="matrix(1 0 0 -1 205 269)" fill="white"/>
<circle cx="1" cy="1" r="1" transform="matrix(1 0 0 -1 197 280)" fill="white"/>
<circle cx="1" cy="1" r="1" transform="matrix(1 0 0 -1 194 292)" fill="white"/>
<circle cx="1" cy="1" r="1" transform="matrix(1 0 0 -1 200 285)" fill="white"/>
<circle cx="1" cy="1" r="1" transform="matrix(1 0 0 -1 180 261)" fill="white"/>
<circle cx="1" cy="1" r="1" transform="matrix(1 0 0 -1 158 269)" fill="white"/>
<circle cx="1" cy="1" r="1" transform="matrix(1 0 0 -1 170 295)" fill="white"/>
<circle cx="1" cy="1" r="1" transform="matrix(1 0 0 -1 168 313)" fill="white"/>
<circle cx="1" cy="1" r="1" transform="matrix(1 0 0 -1 171 322)" fill="white"/>
<circle cx="1" cy="1" r="1" transform="matrix(1 0 0 -1 186 311)" fill="white"/>
<circle cx="1" cy="1" r="1" transform="matrix(1 0 0 -1 173 344)" fill="white"/>
</g>
</svg>
